<?xml version="1.0" encoding="iso-8859-1"?>
<!-- Generator: Adobe Illustrator 18.0.0, SVG Export Plug-In . SVG Version: 6.00 Build 0)  -->
<!DOCTYPE svg PUBLIC "-//W3C//DTD SVG 1.1//EN" "http://www.w3.org/Graphics/SVG/1.1/DTD/svg11.dtd">
<svg version="1.1" id="Capa_1" xmlns="http://www.w3.org/2000/svg" xmlns:xlink="http://www.w3.org/1999/xlink" x="0px" y="0px"
	 viewBox="0 0 431.428 431.428" style="enable-background:new 0 0 431.428 431.428;" xml:space="preserve">
<g>
	<g>
		<path style="fill:none;" d="M70.933,283.616c0,0.854,0.696,1.55,1.549,1.55h286.463c0.855,0,1.549-0.696,1.549-1.55V84.634H70.933
			V283.616z M321.479,107.261c2.239-2.23,5.33-3.51,8.489-3.51c3.16,0,6.25,1.28,8.48,3.51c2.24,2.24,3.52,5.33,3.52,8.49
			c0,3.16-1.279,6.25-3.52,8.48c-2.23,2.24-5.32,3.52-8.48,3.52c-3.16,0-6.25-1.28-8.489-3.52c-2.229-2.23-3.511-5.32-3.511-8.48
			C317.969,112.591,319.25,109.501,321.479,107.261z M93.518,247.84l81.815-72.224c4.575-4.038,11.45-4.001,15.98,0.086
			l31.143,28.097l72.204-70.042c4.757-4.615,12.354-4.499,16.969,0.257c4.613,4.758,4.498,12.355-0.258,16.969l-80.262,77.858
			c-4.535,4.399-11.703,4.529-16.394,0.296l-31.527-28.443l-73.785,65.138c-2.281,2.014-5.115,3.004-7.937,3.004
			c-3.323,0-6.629-1.371-9-4.058C88.078,259.81,88.551,252.226,93.518,247.84z"/>
		<path style="fill:none;" d="M405.879,34.417H25.549c-0.854,0-1.549,0.695-1.549,1.549v23.117c0,0.855,0.695,1.551,1.549,1.551
			h380.33c0.854,0,1.549-0.696,1.549-1.551V35.966C407.428,35.112,406.733,34.417,405.879,34.417z"/>
		<path style="fill:#3D6889;" d="M405.879,10.417H25.549C11.462,10.417,0,21.878,0,35.966v23.117
			c0,14.088,11.462,25.551,25.549,25.551h21.384v198.982c0,14.089,11.462,25.55,25.549,25.55h131.232v56.813L86.297,397.416
			c-6.402,1.715-10.203,8.294-8.489,14.695c1.436,5.363,6.285,8.9,11.584,8.9c1.028,0,2.073-0.133,3.112-0.411l122.736-32.862
			c0.158,0.006,0.314,0.024,0.475,0.024c0.16,0,0.316-0.017,0.476-0.024L338.926,420.6c1.039,0.278,2.083,0.411,3.11,0.411
			c5.3,0,10.148-3.537,11.585-8.9c1.713-6.401-2.087-12.98-8.488-14.695l-117.418-31.438v-56.812h131.23
			c14.088,0,25.549-11.461,25.549-25.55V84.634h21.385c14.088,0,25.549-11.462,25.549-25.551V35.966
			C431.428,21.878,419.967,10.417,405.879,10.417z M407.428,59.083c0,0.855-0.694,1.551-1.549,1.551H25.549
			c-0.854,0-1.549-0.696-1.549-1.551V35.966c0-0.854,0.695-1.549,1.549-1.549h380.33c0.854,0,1.549,0.695,1.549,1.549V59.083z
			 M360.494,283.616c0,0.854-0.694,1.55-1.549,1.55H72.482c-0.854,0-1.549-0.696-1.549-1.55V84.634h289.561V283.616z"/>
		<path style="fill:#3D6889;" d="M101.465,268.836c2.822,0,5.656-0.99,7.937-3.004l73.785-65.138l31.527,28.443
			c4.691,4.232,11.859,4.103,16.394-0.296l80.262-77.858c4.756-4.614,4.871-12.211,0.258-16.969
			c-4.615-4.756-12.212-4.872-16.969-0.257l-72.204,70.042l-31.143-28.097c-4.53-4.087-11.405-4.124-15.98-0.086L93.518,247.84
			c-4.967,4.386-5.44,11.97-1.053,16.938C94.836,267.465,98.142,268.836,101.465,268.836z"/>
		<path style="fill:#3D6889;" d="M329.969,127.751c3.16,0,6.25-1.28,8.48-3.52c2.24-2.23,3.52-5.32,3.52-8.48
			c0-3.16-1.279-6.25-3.52-8.49c-2.23-2.23-5.32-3.51-8.48-3.51c-3.16,0-6.25,1.28-8.489,3.51c-2.229,2.24-3.511,5.33-3.511,8.49
			c0,3.16,1.281,6.25,3.511,8.48C323.719,126.471,326.809,127.751,329.969,127.751z"/>
	</g>
</g>
<g>
</g>
<g>
</g>
<g>
</g>
<g>
</g>
<g>
</g>
<g>
</g>
<g>
</g>
<g>
</g>
<g>
</g>
<g>
</g>
<g>
</g>
<g>
</g>
<g>
</g>
<g>
</g>
<g>
</g>
</svg>
