<?xml version="1.0" encoding="utf-8"?>
<!-- Generator: Adobe Illustrator 18.0.0, SVG Export Plug-In . SVG Version: 6.00 Build 0)  -->
<!DOCTYPE svg PUBLIC "-//W3C//DTD SVG 1.1//EN" "http://www.w3.org/Graphics/SVG/1.1/DTD/svg11.dtd">
<svg version="1.1" id="Layer_1" xmlns="http://www.w3.org/2000/svg" xmlns:xlink="http://www.w3.org/1999/xlink" x="0px" y="0px"
	 viewBox="0 0 500 500" enable-background="new 0 0 500 500" xml:space="preserve">
<g id="cs">
	<g>
		<path fill="#DACA57" d="M345.3,243.1L300.2,198c-1.4-1.4-3.9-1.4-5.3,0l-9.8,9.8c-1.5,1.5-1.5,3.8,0,5.3l32.7,32.7l-32.7,32.7
			c-1.5,1.5-1.5,3.8,0,5.3l9.8,9.8c0.7,0.7,1.7,1.1,2.6,1.1c1,0,1.9-0.4,2.6-1.1l45.1-45.1C346.7,246.9,346.7,244.6,345.3,243.1z"/>
		<path fill="#DACA57" d="M230.9,278.4l-32.7-32.7l32.7-32.7c0.7-0.7,1.1-1.7,1.1-2.6c0-1-0.4-1.9-1.1-2.6l-9.8-9.8
			c-0.7-0.7-1.7-1.1-2.6-1.1c-1,0-1.9,0.4-2.6,1.1l-45.1,45.1c-1.5,1.5-1.5,3.8,0,5.3l45.1,45.1c0.7,0.7,1.7,1.1,2.6,1.1
			s1.9-0.4,2.6-1.1l9.8-9.8C232.4,282.3,232.4,279.9,230.9,278.4z"/>
		<path fill="#DACA57" d="M283.7,182.8c-0.5-0.9-1.3-1.5-2.2-1.8l-7.9-2.3c-2-0.6-4.1,0.5-4.6,2.5l-36.8,124.6c-0.3,1-0.2,2,0.3,2.8
			c0.5,0.9,1.3,1.5,2.2,1.8l7.9,2.3c0.4,0.1,0.7,0.2,1.1,0.2c1.6,0,3.1-1.1,3.6-2.7L284,185.7C284.2,184.7,284.1,183.7,283.7,182.8z
			"/>
	</g>
</g>
</svg>
