<?xml version="1.0" encoding="utf-8"?>
<!-- Generator: Adobe Illustrator 18.0.0, SVG Export Plug-In . SVG Version: 6.00 Build 0)  -->
<!DOCTYPE svg PUBLIC "-//W3C//DTD SVG 1.1//EN" "http://www.w3.org/Graphics/SVG/1.1/DTD/svg11.dtd">
<svg version="1.1" id="Layer_1" xmlns="http://www.w3.org/2000/svg" xmlns:xlink="http://www.w3.org/1999/xlink" x="0px" y="0px"
	 viewBox="0 0 500 500" enable-background="new 0 0 500 500" xml:space="preserve">
<g id="electron">
	<g>
		<g>
			<defs>
				<path id="SVGID_1_" d="M324.6,349.7H176.4c-13.1,0-23.8-10.7-23.8-23.8V177.7c0-13.1,10.7-23.8,23.8-23.8h148.2
					c13.1,0,23.8,10.7,23.8,23.8v148.2C348.5,339,337.8,349.7,324.6,349.7z M176.4,164.5c-7.2,0-13.1,5.9-13.1,13.1v148.2
					c0,7.2,5.9,13.1,13.1,13.1h148.2c7.2,0,13.1-5.9,13.1-13.1V177.7c0-7.2-5.9-13.1-13.1-13.1H176.4z"/>
			</defs>
			<use xlink:href="#SVGID_1_"  overflow="visible" fill="#41AEB6"/>
			<clipPath id="SVGID_2_">
				<use xlink:href="#SVGID_1_"  overflow="visible"/>
			</clipPath>
		</g>
		<g>
			<g>
				<g>
					<path fill="#41AEB6" d="M248.6,206.6h-31.1c-1.8,0-3.3-1.5-3.3-3.3c0-1.8,1.5-3.3,3.3-3.3h27.8v-40.2c0-1.8,1.5-3.3,3.3-3.3
						c1.8,0,3.3,1.5,3.3,3.3v43.6C251.9,205.1,250.4,206.6,248.6,206.6z"/>
				</g>
			</g>
			<g>
				<g>
					<path fill="#41AEB6" d="M273.9,348.2c-1.8,0-3.3,0.5-3.3-1.3v-65.4c0-1.8,1.5-3.3,3.3-3.3h31.5c1.8,0,3.3,1.5,3.3,3.3
						c0,1.8-1.5,3.3-3.3,3.3h-28.2v62.1C277.3,348.7,275.8,348.2,273.9,348.2z"/>
				</g>
			</g>
			<g>
				<g>
					<path fill="#41AEB6" d="M237.4,348.2c-1.8,0-3.3-1.5-3.3-3.3v-38.4h-22.9c-1.8,0-3.3-1.5-3.3-3.3c0-1.8,1.5-3.3,3.3-3.3h26.3
						c1.8,0,3.3,1.5,3.3,3.3v41.8C240.8,346.7,239.3,348.2,237.4,348.2z"/>
				</g>
			</g>
			<g>
				<g>
					<path fill="#41AEB6" d="M249.3,346.5c-1.8,0-3.3-1.5-3.3-3.3v-78.3h-13.3c-1.8,0-3.3-1.5-3.3-3.3c0-1.8,1.5-3.3,3.3-3.3h16.7
						c1.8,0,3.3,1.5,3.3,3.3v81.6C252.6,345,251.1,346.5,249.3,346.5z"/>
				</g>
			</g>
			<g>
				<g>
					<path fill="#41AEB6" d="M294,235.2c-1.8,0-3.3-1.5-3.3-3.3v-72.3c0-1.8,1.5-3.3,3.3-3.3c1.8,0,3.3,1.5,3.3,3.3v72.3
						C297.3,233.7,295.8,235.2,294,235.2z"/>
				</g>
			</g>
			<g>
				<path fill="#41AEB6" d="M261.5,348.2c-1.8,0-3.3-0.2-3.3-2.1V234.8h-99.5c-1.8,0-3.3-1.5-3.3-3.3c0-1.8,1.5-3.3,3.3-3.3h102.9
					c1.8,0,3.3,1.5,3.3,3.3v114.7C264.9,348,263.3,348.2,261.5,348.2z"/>
			</g>
		</g>
		<g>
			<g>
				<path fill="#41AEB6" d="M324.4,295.9h-14.2c-3.8,0-6.8-3.1-6.8-6.8v-14.2c0-3.8,3.1-6.8,6.8-6.8h14.2c3.8,0,6.8,3.1,6.8,6.8
					v14.2C331.3,292.9,328.2,295.9,324.4,295.9z M310.4,288.9h13.9v-13.9h-13.9V288.9z"/>
			</g>
			<g>
				<path fill="#41AEB6" d="M206.5,317.1h-14.2c-3.8,0-6.8-3.1-6.8-6.8v-14.2c0-3.8,3.1-6.8,6.8-6.8h14.2c3.8,0,6.8,3.1,6.8,6.8
					v14.2C213.4,314.1,210.3,317.1,206.5,317.1z M192.5,310.1h13.9v-13.9h-13.9V310.1z"/>
			</g>
			<g>
				<path fill="#41AEB6" d="M225.4,275.2h-14.2c-3.8,0-6.8-3.1-6.8-6.8v-14.2c0-3.8,3.1-6.8,6.8-6.8h14.2c3.8,0,6.8,3.1,6.8,6.8
					v14.2C232.2,272.1,229.2,275.2,225.4,275.2z M211.4,268.2h13.9v-13.9h-13.9V268.2z"/>
			</g>
			<g>
				<path fill="#41AEB6" d="M301.2,256.3H287c-3.8,0-6.8-3.1-6.8-6.8v-14.2c0-3.8,3.1-6.8,6.8-6.8h14.2c3.8,0,6.8,3.1,6.8,6.8v14.2
					C308.1,253.3,305,256.3,301.2,256.3z M287.2,249.3h13.9v-13.9h-13.9V249.3z"/>
			</g>
			<g>
				<path fill="#41AEB6" d="M213.6,216.7h-14.2c-3.8,0-7.3-3.1-7.3-6.8v-14.2c0-3.8,3.1-6.8,6.8-6.8h14.2c3.8,0,6.8,3.1,6.8,6.8
					v14.2C220,213.7,217.4,216.7,213.6,216.7z M199.1,209.7H213v-13.9h-13.9V209.7z"/>
			</g>
		</g>
	</g>
</g>
</svg>
