<?xml version="1.0" encoding="utf-8"?>
<!-- Generator: Adobe Illustrator 18.0.0, SVG Export Plug-In . SVG Version: 6.00 Build 0)  -->
<!DOCTYPE svg PUBLIC "-//W3C//DTD SVG 1.1//EN" "http://www.w3.org/Graphics/SVG/1.1/DTD/svg11.dtd">
<svg version="1.1" id="Layer_1" xmlns="http://www.w3.org/2000/svg" xmlns:xlink="http://www.w3.org/1999/xlink" x="0px" y="0px"
	 viewBox="0 0 500 500" enable-background="new 0 0 500 500" xml:space="preserve">
<g id="electrical">
	<g>
		<path fill="#69A06A" d="M338.5,192.4c-9.8-4.7-21.5-0.5-26.2,9.3c-3.2,6.7-2.2,14.3,1.9,20l-14.1,29.5c-10.8-6-23.1-9.4-36.3-9.4
			c-13.1,0-25.5,3.4-36.2,9.4l-14.2-29.7c4.1-5.6,5.1-13.2,1.9-20c-4.7-9.8-16.4-14-26.2-9.3c-9.8,4.7-14,16.4-9.3,26.2
			c3.2,6.7,9.8,10.7,16.7,11.1l15.7,32.9c-11.3,10.7-19.3,24.8-22.2,40.8c-0.6,3.1,0.3,6.7,2.3,9.1c2,2.4,4.9,4.3,8.1,4.3h126.9
			c3.1,0,6.1-1.9,8.1-4.3c2-2.4,2.8-5.8,2.3-8.9c-2.9-15.9-10.9-30.1-22.1-40.8l15.6-32.8c7-0.4,13.5-4.4,16.7-11.1
			C352.5,208.9,348.3,197.1,338.5,192.4z"/>
		<path fill="#69A06A" d="M297.3,204.7h-10.4l-11.9-21.4c-1-1.8-2.9-2.9-4.9-2.9c-2.2,0-4.1,1.2-5,3.2l-11.6,24.2
			c-0.1,0.3-0.4,0.5-0.7,0.4c-0.3,0-0.6-0.2-0.7-0.5l-11.5-31.1c-0.9-2.3-3.1-3.7-5.5-3.5c-2.4,0.1-4.5,1.8-5.1,4.1l-8.3,31.3
			c-0.8,3,1,6,4,6.8c3,0.8,6-1,6.8-4l3.5-13.1c0.1-0.2,0.3-0.4,0.5-0.4c0.2,0,0.5,0.1,0.6,0.4l10.5,27.4c0.9,2.3,3,3.8,5.5,3.8
			c2.4,0,4.5-1.4,5.4-3.6l11.1-25.8c0.1-0.2,0.3-0.4,0.6-0.4c0.3,0,0.5,0.1,0.6,0.3l7.9,13.3c1,1.8,2.9,2.7,4.9,2.7h13.7
			c3.1,0,5.6-2.5,5.6-5.6C302.9,207.2,300.4,204.7,297.3,204.7z"/>
	</g>
</g>
</svg>
