<?xml version="1.0" encoding="utf-8"?>
<!-- Generator: Adobe Illustrator 18.0.0, SVG Export Plug-In . SVG Version: 6.00 Build 0)  -->
<!DOCTYPE svg PUBLIC "-//W3C//DTD SVG 1.1//EN" "http://www.w3.org/Graphics/SVG/1.1/DTD/svg11.dtd">
<svg version="1.1" id="Layer_1" xmlns="http://www.w3.org/2000/svg" xmlns:xlink="http://www.w3.org/1999/xlink" x="0px" y="0px"
	 viewBox="0 0 500 500" enable-background="new 0 0 500 500" xml:space="preserve">
<g>
	<g>
		<path fill="#E27356" d="M262.2,189.1c-25.5,0-46.3,20.8-46.3,46.3c0,10.4,3.4,20.3,9.9,28.5c1.3,1.6,2.6,3.2,4,4.8l0.1,0.1
			c4.3,5,8.8,10.3,10.5,16.4c0.4,1.4,0.4,4.1,0.4,6.2v3.5c0,3.2,2.6,5.9,5.9,5.9h30.7c3.2,0,5.9-2.6,5.9-5.9v-3.6
			c0-2.7,0.1-4.7,0.4-5.7c1.7-6.1,6.7-12,11.1-17.2l0.2-0.2c1.3-1.5,2.5-2.9,3.6-4.3c6.5-8.2,9.9-18.1,9.9-28.5
			C308.4,209.9,287.7,189.1,262.2,189.1z M289.3,256.7c-1,1.2-2.1,2.6-3.3,4l-0.2,0.3c-5.2,6.1-11.1,13-13.4,21.6
			c-0.3,1.2-0.7,3-0.8,6.6h-19c-0.1-3.7-0.5-5.6-0.8-6.9c-2.4-8.7-8.2-15.5-13-21l-0.1-0.1c-1.3-1.5-2.6-3-3.7-4.4
			c-4.8-6.1-7.4-13.5-7.4-21.3c0-19.1,15.5-34.6,34.6-34.6c19.1,0,34.5,15.5,34.5,34.6C296.7,243.2,294.2,250.6,289.3,256.7z"/>
		<path fill="#E27356" d="M277.4,302.5h-30.7c-3.2,0-5.9,2.6-5.9,5.9s2.6,5.9,5.9,5.9h30.7c3.2,0,5.9-2.6,5.9-5.9
			S280.6,302.5,277.4,302.5z"/>
		<path fill="#E27356" d="M269.7,315.9h-15.3c-3.2,0-5.9,2.6-5.9,5.9c0,3.2,2.6,5.9,5.9,5.9h15.3c3.2,0,5.9-2.6,5.9-5.9
			C275.6,318.5,272.9,315.9,269.7,315.9z"/>
		<path fill="#E27356" d="M343,229.6h-20.2c-3.2,0-5.9,2.6-5.9,5.9c0,3.2,2.6,5.9,5.9,5.9H343c3.2,0,5.9-2.6,5.9-5.9
			C348.8,232.2,346.2,229.6,343,229.6z"/>
		<path fill="#E27356" d="M207.4,235.4c0-3.2-2.6-5.9-5.9-5.9h-20.2c-3.2,0-5.9,2.6-5.9,5.9c0,3.2,2.6,5.9,5.9,5.9h20.2
			C204.8,241.3,207.4,238.6,207.4,235.4z"/>
		<path fill="#E27356" d="M262.2,180.7c3.2,0,5.9-2.6,5.9-5.9v-20.2c0-3.2-2.6-5.9-5.9-5.9c-3.2,0-5.9,2.6-5.9,5.9v20.2
			C256.3,178,258.9,180.7,262.2,180.7z"/>
		<path fill="#E27356" d="M309.2,274.1c-2.3-2.3-6-2.3-8.3,0c-2.3,2.3-2.3,6,0,8.3l14.3,14.3c1.1,1.1,2.6,1.7,4.1,1.7
			c1.5,0,3-0.6,4.1-1.7c2.3-2.3,2.3-6,0-8.3L309.2,274.1z"/>
		<path fill="#E27356" d="M215.1,196.7c1.1,1.1,2.6,1.7,4.1,1.7c1.5,0,3-0.6,4.1-1.7c2.3-2.3,2.3-6,0-8.3l-14.3-14.3
			c-2.3-2.3-6-2.3-8.3,0c-2.3,2.3-2.3,6,0,8.3L215.1,196.7z"/>
		<path fill="#E27356" d="M215.2,274.1l-14.3,14.3c-2.3,2.3-2.3,6,0,8.3c1.1,1.1,2.6,1.7,4.1,1.7c1.5,0,3-0.6,4.1-1.7l14.3-14.3
			c2.3-2.3,2.3-6,0-8.3C221.2,271.8,217.4,271.8,215.2,274.1z"/>
		<path fill="#E27356" d="M305,198.4c1.5,0,3-0.6,4.1-1.7l14.3-14.3c2.3-2.3,2.3-6,0-8.3c-2.3-2.3-6-2.3-8.3,0l-14.3,14.3
			c-2.3,2.3-2.3,6,0,8.3C302,197.8,303.5,198.4,305,198.4z"/>
	</g>
</g>
</svg>
