<?xml version="1.0" encoding="utf-8"?>
<!-- Generator: Adobe Illustrator 18.0.0, SVG Export Plug-In . SVG Version: 6.00 Build 0)  -->
<!DOCTYPE svg PUBLIC "-//W3C//DTD SVG 1.1//EN" "http://www.w3.org/Graphics/SVG/1.1/DTD/svg11.dtd">
<svg version="1.1" id="Layer_1" xmlns="http://www.w3.org/2000/svg" xmlns:xlink="http://www.w3.org/1999/xlink" x="0px" y="0px"
	 viewBox="0 0 500 500" enable-background="new 0 0 500 500" xml:space="preserve">
<g>
	<path fill="#D34242" d="M340.9,192.9h-23.8l-4.8-18.4c-1.3-5-5.8-8.5-11-8.5h-76.1c-5.2,0-9.7,3.5-11,8.5v0l-4.8,18.4h-23.8
		c-8.9,0-16.1,7.2-16.1,16.1c0,5.3,0,104.1,0,108.9c0,8.9,7.2,16.1,16.1,16.1h155.3c8.9,0,16.1-7.2,16.1-16.1c0-4.7,0-103.6,0-108.9
		C357,200.2,349.8,192.9,340.9,192.9z M223.2,176.9c0.2-0.9,1.1-1.6,2.1-1.6h76c1,0,1.8,0.7,2.1,1.6l4.2,16.1h-4.7l-2.2-9.9
		c-0.5-2.1-2.4-3.6-4.5-3.6h-65.6c-2.2,0-4,1.5-4.5,3.6l-2.2,9.9H219L223.2,176.9z M293.3,192.9h-60.1l0.9-4.2h58.2L293.3,192.9z
		 M347.7,317.9c0,3.8-3.1,6.8-6.8,6.8H185.6c-3.8,0-6.8-3.1-6.8-6.8v-56.8c4.9,4.3,11.3,7,18.3,7h43.1v7.3c0,1.4,0.6,2.8,1.8,3.6
		l18.5,14.7c1.7,1.3,4.1,1.3,5.8,0l18.5-14.7c1.1-0.9,1.8-2.2,1.8-3.6v-7.3h43.1c7,0,13.4-2.6,18.3-7V317.9z M249.4,273.2v-9.7v-9.9
		h27.7v9.9v9.7l-13.9,11L249.4,273.2z M347.7,240.6c0,10.1-8.2,18.3-18.3,18.3h-43.1v-9.9c0-2.6-2.1-4.6-4.6-4.6h-37
		c-2.6,0-4.6,2.1-4.6,4.6v9.9h-43.1c-10.1,0-18.3-8.2-18.3-18.3V209c0-3.8,3.1-6.8,6.8-6.8c17,0,138.1,0,155.3,0
		c3.8,0,6.8,3.1,6.8,6.8V240.6z"/>
</g>
</svg>
