<?xml version="1.0" encoding="utf-8"?>
<!-- Generator: Adobe Illustrator 18.0.0, SVG Export Plug-In . SVG Version: 6.00 Build 0)  -->
<!DOCTYPE svg PUBLIC "-//W3C//DTD SVG 1.1//EN" "http://www.w3.org/Graphics/SVG/1.1/DTD/svg11.dtd">
<svg version="1.1" id="Layer_1" xmlns="http://www.w3.org/2000/svg" xmlns:xlink="http://www.w3.org/1999/xlink" x="0px" y="0px"
	 viewBox="0 0 500 500" enable-background="new 0 0 500 500" xml:space="preserve">
<g id="robot">
	<g>
		<path fill="#85548C" d="M264.5,219.7c-5.9,3.4-8.8,8.7-6.7,12.3c1.1,1.9,3.2,2.8,5.8,2.8c2.4,0,5.3-0.8,8.2-2.5
			c5.9-3.4,8.8-8.7,6.7-12.3C276.4,216.4,270.5,216.3,264.5,219.7z M269.2,227.8c-3.6,2.1-6.4,1.9-6.8,1.6c-0.1-0.6,1.2-3.1,4.7-5.1
			c2.5-1.4,4.6-1.8,5.8-1.8c0.5,0,0.9,0.1,1,0.2C274,223.3,272.7,225.7,269.2,227.8z"/>
		<path fill="#85548C" d="M244.2,219.1c-5.9-3.4-11.9-3.3-14,0.3c-1.1,2-0.8,4.5,0.8,7c1.3,2,3.4,3.9,5.9,5.3
			c2.9,1.7,5.8,2.5,8.2,2.5c2.6,0,4.7-1,5.8-2.8c1.1-2,0.8-4.5-0.8-7C248.8,222.4,246.7,220.5,244.2,219.1z M239.6,227.1
			c-3.6-2.1-4.9-4.5-4.8-5c0.2-0.1,0.6-0.2,1.2-0.2c1.2,0,3.3,0.4,5.6,1.8c3.6,2.1,4.9,4.5,4.8,5C245.9,229,243.1,229.2,239.6,227.1
			z"/>
		<path fill="#85548C" d="M254.2,247.2c27.9,0,47.4-10,47.4-24.2c0-14.3-20.3-36.3-47.4-36.3s-47.4,22-47.4,36.3
			C206.8,237.2,226.3,247.2,254.2,247.2z M224.2,203.1c5-4.2,15.6-11.2,30-11.2c22.8,0,42.1,19.1,42.1,31.1
			c0,11-17.7,18.9-42.1,18.9S212,234,212,223C212,217.1,216.8,209.3,224.2,203.1z"/>
		<path fill="#85548C" d="M295,247.5c-0.3-1.8-0.5-3.5-0.9-5.3c-0.2-0.9-0.7-1.6-1.5-1.9c-0.8-0.3-1.7-0.3-2.5,0.2
			c-9.5,6-22.3,9.3-36,9.3c-13.7,0-26.4-3.3-36-9.3c-0.7-0.5-1.7-0.5-2.5-0.2c-0.8,0.3-1.4,1.1-1.5,1.9c-0.3,1.8-0.6,3.5-0.9,5.3
			c-7.9,3.2-10,27.2-10,41.8c0,15.6,2.5,42.1,11.8,42.1c4,0,7.1-4.7,9.2-14c7.6,13.5,18.2,21.9,29.9,21.9c11.7,0,22.3-8.4,30-22
			c2.1,9.4,5.2,14.1,9.2,14.1c9.4,0,11.8-26.5,11.8-42.1C305.2,274.7,303,250.5,295,247.5z M220.1,311.3
			c-1.8,11.2-4.3,14.6-4.9,14.9c-2.3-0.9-6.7-14.4-6.7-36.9c0-14.6,1.8-25.4,3.8-31.4c-0.2,2.6-0.3,5.1-0.3,7.7
			c0,16.7,3.2,32.2,8.6,44.5C220.4,310.5,220.2,310.9,220.1,311.3z M254.2,334.1c-20.3,0-36.9-30.7-36.9-68.5
			c0-6.4,0.5-12.7,1.4-18.7c9.9,5.3,22.3,8.2,35.4,8.2s25.5-2.9,35.4-8.2c0.9,6.1,1.4,12.3,1.4,18.7
			C291,303.4,274.5,334.1,254.2,334.1z M293.4,326.2c-0.7-0.3-3.3-3.6-5.1-14.9c-0.1-0.5-0.3-0.9-0.6-1.2
			c5.4-12.4,8.6-27.8,8.6-44.5c0-2.8-0.1-5.5-0.3-8.2c2,5.9,3.9,16.9,3.9,31.9C299.9,311.8,295.6,325.3,293.4,326.2z"/>
		<path fill="#85548C" d="M223.9,227.5c0-7.6,13-19.2,30.3-19.2s30.3,11.7,30.3,19.2v2.6h5.3v-2.6c0-11.1-15.9-24.5-35.5-24.5
			s-35.5,13.4-35.5,24.5v2.6h5.3C223.9,230.1,223.9,227.5,223.9,227.5z"/>
	</g>
</g>
</svg>
