<?xml version="1.0" encoding="iso-8859-1"?>
<!-- Generator: Adobe Illustrator 18.0.0, SVG Export Plug-In . SVG Version: 6.00 Build 0)  -->
<!DOCTYPE svg PUBLIC "-//W3C//DTD SVG 1.1//EN" "http://www.w3.org/Graphics/SVG/1.1/DTD/svg11.dtd">
<svg version="1.1" id="Capa_1" xmlns="http://www.w3.org/2000/svg" xmlns:xlink="http://www.w3.org/1999/xlink" x="0px" y="0px"
	 viewBox="0 0 220 220" style="enable-background:new 0 0 220 220;" xml:space="preserve">
<path d="M110,0C49.249,0,0,49.247,0,110s49.249,110,110,110s110-49.247,110-110S170.75,0,110,0z M137.625,110
	c0,27.604-22.457,50.061-50.061,50.061c-27.604,0-50.061-22.457-50.061-50.061S59.96,59.939,87.564,59.939
	c11.137,0,21.688,3.585,30.512,10.368l-11.623,15.119c-5.461-4.198-11.993-6.417-18.889-6.417c-17.088,0-30.99,13.902-30.99,30.99
	s13.902,30.99,30.99,30.99c13.763,0,25.459-9.018,29.49-21.455h-29.49v-19.07h50.061V110z M190.33,116.234h-14.34v14.342h-12.47
	v-14.342h-14.334v-12.469h14.334V89.424h12.47v14.342h14.34V116.234z"/>
<g>
</g>
<g>
</g>
<g>
</g>
<g>
</g>
<g>
</g>
<g>
</g>
<g>
</g>
<g>
</g>
<g>
</g>
<g>
</g>
<g>
</g>
<g>
</g>
<g>
</g>
<g>
</g>
<g>
</g>
</svg>
