<?xml version="1.0" encoding="UTF-8" standalone="no"?>
<!-- Generator: Adobe Illustrator 16.0.0, SVG Export Plug-In . SVG Version: 6.00 Build 0)  -->

<svg
   xmlns:dc="http://purl.org/dc/elements/1.1/"
   xmlns:cc="http://creativecommons.org/ns#"
   xmlns:rdf="http://www.w3.org/1999/02/22-rdf-syntax-ns#"
   xmlns:svg="http://www.w3.org/2000/svg"
   xmlns="http://www.w3.org/2000/svg"
   xmlns:sodipodi="http://sodipodi.sourceforge.net/DTD/sodipodi-0.dtd"
   xmlns:inkscape="http://www.inkscape.org/namespaces/inkscape"
   version="1.1"
   id="Layer_1"
   x="0px"
   y="0px"
   width="862"
   height="208"
   viewBox="0 0 862 208"
   enable-background="new 0 0 1000 1000"
   xml:space="preserve"
   inkscape:version="0.91 r13725"
   sodipodi:docname="airplaneBAnner.svg"><metadata
     id="metadata81"><rdf:RDF><cc:Work
         rdf:about=""><dc:format>image/svg+xml</dc:format><dc:type
           rdf:resource="http://purl.org/dc/dcmitype/StillImage" /><dc:title></dc:title></cc:Work></rdf:RDF></metadata><defs
     id="defs79" /><sodipodi:namedview
     pagecolor="#ffffff"
     bordercolor="#666666"
     borderopacity="1"
     objecttolerance="10"
     gridtolerance="10"
     guidetolerance="10"
     inkscape:pageopacity="0"
     inkscape:pageshadow="2"
     inkscape:window-width="1920"
     inkscape:window-height="1056"
     id="namedview77"
     showgrid="false"
     inkscape:zoom="0.6675088"
     inkscape:cx="500"
     inkscape:cy="500"
     inkscape:window-x="0"
     inkscape:window-y="24"
     inkscape:window-maximized="1"
     inkscape:current-layer="Layer_1" /><g
     id="g3"
     transform="translate(-93.22034,-406.40678)"><polygon
       points="946.554,452.296 904.871,508.941 946.554,565.586 534.785,565.586 534.785,452.296 "
       id="polygon5"
       style="clip-rule:evenodd;fill:#ffe3e3;fill-rule:evenodd" /><polyline
       stroke-miterlimit="22.9256"
       points="   534.785,452.296 459.783,508.941 534.785,565.586  "
       id="polyline7"
       style="clip-rule:evenodd;fill:none;fill-rule:evenodd;stroke:#ffffff;stroke-width:1.91989994;stroke-miterlimit:22.92560005" /><path
       d="m 389.623,527.307 c 10.309,3.964 21.001,1.086 37.152,-13.188 16.15,-14.271 34.93,-25.163 43.193,-16.524 8.263,8.638 2.629,35.679 -3.756,45.445 -6.385,9.766 -24.631,13.218 -67.942,13.199 -43.312,-0.018 -52.246,-29.722 -8.647,-28.932 z"
       id="path9"
       inkscape:connector-curvature="0"
       style="clip-rule:evenodd;fill:#f7daac;fill-rule:evenodd" /><path
       d="m 194.997,581.588 c 7.233,0 13.132,-5.899 13.132,-13.132 0,-7.231 -5.899,-13.132 -13.132,-13.132 -7.233,0 -13.132,5.9 -13.132,13.132 0,7.232 5.899,13.132 13.132,13.132 z"
       id="path11"
       inkscape:connector-curvature="0"
       style="clip-rule:evenodd;fill:#4d4d4d;fill-rule:evenodd" /><path
       d="m 194.997,575.526 c 3.895,0 7.071,-3.175 7.071,-7.07 0,-3.895 -3.176,-7.071 -7.071,-7.071 -3.895,0 -7.071,3.176 -7.071,7.071 0,3.895 3.177,7.07 7.071,7.07 z"
       id="path13"
       inkscape:connector-curvature="0"
       style="clip-rule:evenodd;fill:#f7daac;fill-rule:evenodd" /><rect
       x="204.201"
       y="530.12799"
       transform="matrix(-0.8641,-0.5034,0.5034,-0.8641,112.3322,1123.1953)"
       width="7.2550001"
       height="32.603001"
       id="rect15"
       style="clip-rule:evenodd;fill:#a66803;fill-rule:evenodd" /><polygon
       points="210.455,566.953 206.985,570.328 164.174,525.219 167.643,521.842 "
       id="polygon17"
       style="clip-rule:evenodd;fill:#a66803;fill-rule:evenodd" /><path
       d="m 240.387,496.051 c 1.075,0 1.946,0.871 1.946,1.946 l -0.001,0.062 c 0.73,1.571 3.214,6.027 7.758,5.8 5.308,-0.265 3.969,-4.108 5.096,-6.114 -1.111,-1.224 -1.789,-2.849 -1.789,-4.631 0,-3.804 3.084,-6.888 6.889,-6.888 3.803,0 6.888,3.083 6.888,6.888 0,2.411 -1.239,4.532 -3.115,5.763 3.458,4.23 6.038,12.052 5.594,22.893 -0.55,13.501 -36.646,0.826 -36.646,0.826 0,0 9.369,-8.541 7.991,-14.879 -1.377,-6.337 -2.48,-9.092 -2.48,-9.092 l 0.023,-0.008 c -0.065,-0.195 -0.101,-0.403 -0.101,-0.619 0.001,-1.076 0.873,-1.947 1.947,-1.947 z"
       id="path19"
       inkscape:connector-curvature="0"
       style="clip-rule:evenodd;fill:#cf8713;fill-rule:evenodd" /><path
       d="m 131.033,499.538 c -1.279,11.919 18.271,34.12 102.368,44.633 84.095,10.513 201.481,16.017 206.486,8.509 4.384,-6.575 -84.452,-40.904 -147.552,-55.124 -0.759,7.746 -2.865,13.357 -8.104,12.111 -8.763,-2.087 -40.06,-7.512 -52.995,-10.016 -10.947,-2.119 -11.136,-6.331 -11.441,-11.873 -47.38,-3.349 -87.431,-0.648 -88.762,11.76 z"
       id="path21"
       inkscape:connector-curvature="0"
       style="clip-rule:evenodd;fill:#f9a822;fill-rule:evenodd" /><path
       d="m 175.657,532.668 c 14.572,4.457 33.462,8.467 57.744,11.503 5.471,0.684 11.085,1.345 16.797,1.986 2.972,-22.474 5.569,-41.987 5.569,-41.987 -9.41,-1.717 -18.784,-3.406 -24.531,-4.519 -10.947,-2.119 -11.136,-6.331 -11.441,-11.873 -7.418,-0.525 -14.658,-0.901 -21.595,-1.114 l -22.543,46.004 z"
       id="path23"
       inkscape:connector-curvature="0"
       style="clip-rule:evenodd;fill:#cf8713;fill-rule:evenodd" /><ellipse
       transform="matrix(0.175,-0.9846,0.9846,0.175,-376.2271,554.1729)"
       cx="142.57201"
       cy="501.58801"
       rx="7.1069999"
       ry="22.943001"
       id="ellipse25"
       style="clip-rule:evenodd;fill:#f9a822;fill-rule:evenodd" /><path
       d="m 130.978,500.762 0.081,0.018 0.08,0.016 0.017,0.004 0.062,0.013 0.077,0.017 0.038,0.008 0.039,0.009 0.074,0.015 0.058,0.013 0.015,0.003 0.072,0.016 0.071,0.014 0.004,10e-4 0.064,0.014 0.069,0.014 0.025,0.005 0.042,0.009 0.065,0.015 0.042,0.009 0.023,0.005 0.063,0.014 0.058,0.012 0.004,0.001 0.061,0.013 0.059,0.014 0.013,0.003 0.045,0.009 0.056,0.012 0.029,0.007 0.027,0.006 0.054,0.012 0.043,0.01 0.011,0.002 0.051,0.012 0.051,0.011 0.005,0.001 0.043,0.01 0.049,0.01 0.018,0.005 0.028,0.006 0.045,0.01 0.03,0.007 0.014,0.002 0.043,0.011 0.041,0.008 10e-4,0.002 0.041,0.009 0.04,0.007 0.009,0.003 0.028,0.006 0.037,0.008 0.019,0.005 0.016,0.003 0.034,0.008 0.028,0.006 0.005,0.002 0.031,0.005 0.03,0.008 0.003,0.001 0.025,0.005 0.028,0.008 0.011,0.002 0.016,0.003 0.025,0.006 0.017,0.003 0.007,10e-4 0.022,0.006 0.021,0.005 0,0 0.021,0.004 0.018,0.004 0.005,0.002 0.013,0.003 0.016,0.003 0.008,0.003 0.007,10e-4 0.013,0.002 0.01,0.002 0.002,10e-4 0.011,0.003 0.01,0.002 0.001,0 0.007,0.002 0.007,0.001 0.003,0 0.002,10e-4 0.005,10e-4 0.003,0 0,0.002 0.002,0 0,0 0.002,0.003 0.006,0.007 0.008,0.009 0.003,0.003 0.014,0.016 0.02,0.021 0.014,0.015 0.01,0.01 0.027,0.029 0.033,0.034 0.014,0.014 0.023,0.024 0.042,0.042 0.045,0.046 0.009,0.01 0.042,0.04 0.056,0.055 0.058,0.06 0.002,0 0.063,0.062 0.127,0.123 0.016,0.015 0.078,0.074 0.083,0.078 0.088,0.083 0.093,0.087 0.097,0.09 0.103,0.093 0.107,0.098 0.112,0.101 0.101,0.09 0.016,0.015 0.122,0.108 0.26,0.226 0.136,0.118 0.013,0.011 0.13,0.111 0.147,0.125 0.152,0.127 0.159,0.131 0.163,0.135 0.168,0.139 0.174,0.14 0.178,0.143 0.037,0.03 0.321,0.255 0.015,0.012 0.196,0.152 0.02,0.016 0.351,0.271 0.035,0.026 0.211,0.161 0.034,0.024 0.183,0.14 0.223,0.165 0.228,0.169 0.233,0.172 0.001,0 0.239,0.174 0.245,0.177 0.243,0.173 0.401,0.283 0.315,0.221 0.416,0.286 0.37,0.251 0.513,0.345 0.228,0.151 0.635,0.414 0.251,0.163 c 12.399,7.967 38.598,20.368 86.458,25.485 73.167,7.822 167.503,16.566 198.334,11.044 0.837,-0.149 1.653,-0.298 2.456,-0.444 7.054,3.727 10.771,6.601 9.788,8.076 -5.005,7.508 -122.391,2.004 -206.486,-8.509 -69.802,-8.726 -95.134,-25.503 -100.998,-37.771 -7.003,-2.246 -11.865,-5.269 -12.403,-7.941 5.065,1.031 8.736,1.811 10.976,2.293 z"
       id="path27"
       inkscape:connector-curvature="0"
       style="clip-rule:evenodd;fill:#cf8713;fill-rule:evenodd" /><path
       d="m 130.978,500.762 0.081,0.018 0.08,0.016 0.017,0.004 0.062,0.013 0.077,0.017 0.038,0.008 0.039,0.009 0.074,0.015 0.058,0.013 0.015,0.003 0.072,0.016 0.071,0.014 0.004,10e-4 0.064,0.014 0.069,0.014 0.025,0.005 0.042,0.009 0.065,0.015 0.042,0.009 0.023,0.005 0.063,0.014 0.058,0.012 0.004,0.001 0.061,0.013 0.059,0.014 0.013,0.003 0.045,0.009 0.056,0.012 0.029,0.007 0.027,0.006 0.054,0.012 0.043,0.01 0.011,0.002 0.051,0.012 0.051,0.011 0.005,0.001 0.043,0.01 0.049,0.01 0.018,0.005 0.028,0.006 0.045,0.01 0.03,0.007 0.014,0.002 0.043,0.011 0.041,0.008 10e-4,0.002 0.041,0.009 0.04,0.007 0.009,0.003 0.028,0.006 0.037,0.008 0.019,0.005 0.016,0.003 0.034,0.008 0.028,0.006 0.005,0.002 0.031,0.005 0.03,0.008 0.003,0.001 0.025,0.005 0.028,0.008 0.011,0.002 0.016,0.003 0.025,0.006 0.017,0.003 0.007,10e-4 0.022,0.006 0.021,0.005 0,0 0.021,0.004 0.018,0.004 0.005,0.002 0.013,0.003 0.016,0.003 0.008,0.003 0.007,10e-4 0.013,0.002 0.01,0.002 0.002,10e-4 0.011,0.003 0.01,0.002 0.001,0 0.007,0.002 0.007,0.001 0.003,0 0.002,10e-4 0.005,10e-4 0.003,0 0,0.002 0.002,0 0,0 0.002,0.003 0.006,0.007 0.008,0.009 0.003,0.003 0.014,0.016 0.02,0.021 0.014,0.015 0.01,0.01 0.027,0.029 0.033,0.034 0.014,0.014 0.023,0.024 0.042,0.042 0.045,0.046 0.009,0.01 0.042,0.04 0.056,0.055 0.058,0.06 0.002,0 0.063,0.062 0.127,0.123 0.016,0.015 0.078,0.074 0.083,0.078 0.088,0.083 0.093,0.087 0.097,0.09 0.103,0.093 0.107,0.098 0.112,0.101 0.101,0.09 0.016,0.015 0.122,0.108 0.26,0.226 0.136,0.118 0.013,0.011 0.13,0.111 0.147,0.125 0.152,0.127 0.159,0.131 0.163,0.135 0.168,0.139 0.174,0.14 0.178,0.143 0.037,0.03 0.321,0.255 0.015,0.012 0.196,0.152 0.02,0.016 0.351,0.271 0.035,0.026 0.211,0.161 0.034,0.024 0.183,0.14 0.223,0.165 0.228,0.169 0.233,0.172 0.001,0 0.239,0.174 0.245,0.177 0.243,0.173 0.401,0.283 0.315,0.221 0.416,0.286 0.37,0.251 0.513,0.345 0.228,0.151 0.635,0.414 0.251,0.163 c 0.217,0.14 0.439,0.28 0.667,0.423 -0.723,-0.106 -1.453,-0.225 -2.19,-0.355 -3.209,-0.571 -6.226,-1.321 -8.924,-2.187 l -0.327,-0.105 -0.324,-0.107 c -0.215,-0.072 -0.427,-0.144 -0.638,-0.217 l -0.312,-0.11 -0.307,-0.11 -0.009,-0.002 -0.302,-0.111 -0.303,-0.113 c -1.305,-0.49 -2.511,-1.009 -3.6,-1.543 l -0.006,-0.004 c -0.241,-0.118 -0.476,-0.236 -0.705,-0.356 l -0.057,-0.029 -0.207,-0.111 -0.231,-0.126 -0.181,-0.1 -0.086,-0.048 -0.184,-0.105 -0.219,-0.127 -0.174,-0.104 -0.091,-0.055 -0.15,-0.092 -0.008,-0.004 -0.204,-0.129 c -0.135,-0.085 -0.267,-0.172 -0.396,-0.258 l -0.19,-0.129 -0.173,-0.12 -0.026,-0.019 c -0.239,-0.17 -0.465,-0.34 -0.678,-0.511 l -0.161,-0.13 -0.157,-0.14 -0.002,-0.003 -0.149,-0.13 -0.144,-0.131 -0.126,-0.118 -0.023,-0.021 c -0.13,-0.125 -0.253,-0.25 -0.368,-0.375 l -0.013,-0.014 c -0.113,-0.123 -0.218,-0.245 -0.317,-0.368 l -0.022,-0.027 c -0.095,-0.121 -0.183,-0.24 -0.263,-0.361 l -0.02,-0.029 -0.074,-0.115 -0.077,-0.128 -0.063,-0.114 -0.014,-0.028 -0.059,-0.114 0,-10e-4 -0.06,-0.128 -0.044,-0.106 -0.015,-0.039 -0.041,-0.107 -0.008,-0.024 c -0.025,-0.073 -0.046,-0.147 -0.065,-0.22 l -0.004,-0.019 -0.029,-0.117 c 5.067,1.042 8.738,1.822 10.978,2.304 z"
       id="path29"
       inkscape:connector-curvature="0"
       style="clip-rule:evenodd;fill:#cf8713;fill-rule:evenodd" /><path
       d="m 136.78,451.043 c -0.637,13.738 -2.552,30.522 -5.747,48.495 -3.195,17.971 -7.181,34.388 -11.318,47.504 0.637,-13.738 2.552,-30.522 5.747,-48.495 3.194,-17.972 7.18,-34.388 11.318,-47.504 z"
       id="path31"
       inkscape:connector-curvature="0"
       style="clip-rule:evenodd;fill:#fff1db;fill-rule:evenodd" /><path
       d="m 124.119,502.801 c -2.86,-1.74 -4.427,-3.581 -4.135,-5.228 0.293,-1.646 2.399,-2.833 5.683,-3.482 0.171,1.453 0.137,2.955 -0.132,4.47 -0.27,1.513 -0.754,2.935 -1.416,4.24 z"
       id="path33"
       inkscape:connector-curvature="0"
       style="clip-rule:evenodd;fill:#ffcd7d;fill-rule:evenodd" /><path
       d="m 206.458,592.571 c 8.022,0 14.565,-6.544 14.565,-14.563 0,-8.023 -6.543,-14.566 -14.565,-14.566 -8.022,0 -14.565,6.543 -14.565,14.566 0,8.019 6.543,14.563 14.565,14.563 z"
       id="path35"
       inkscape:connector-curvature="0"
       style="clip-rule:evenodd;fill:#4d4d4d;fill-rule:evenodd" /><path
       d="m 206.458,585.85 c 4.319,0 7.842,-3.522 7.842,-7.842 0,-4.321 -3.523,-7.843 -7.842,-7.843 -4.319,0 -7.842,3.521 -7.842,7.843 0,4.319 3.523,7.842 7.842,7.842 z"
       id="path37"
       inkscape:connector-curvature="0"
       style="clip-rule:evenodd;fill:#f7daac;fill-rule:evenodd" /><path
       d="m 191.429,460.124 c -2.926,-0.154 -2.921,1.704 2.191,2.677 5.112,0.973 54.28,12.17 60.609,12.657 6.328,0.486 25.07,1.704 37.484,-1.704 12.414,-3.407 71.805,-22.881 76.674,-24.828 4.867,-1.947 8.52,-2.434 3.164,-4.868 -5.355,-2.433 -71.562,-19.715 -81.785,-21.419 -10.224,-1.704 -18.743,-3.164 -24.828,2.191 -6.085,5.355 -47.221,30.182 -50.386,33.103 -3.163,2.921 -16.761,2.525 -23.123,2.191 z"
       id="path39"
       inkscape:connector-curvature="0"
       style="clip-rule:evenodd;fill:#ffffff;fill-rule:evenodd" /><rect
       x="208.42599"
       y="540.58899"
       transform="matrix(-0.9562,-0.2926,0.2926,-0.9562,251.0484,1156.985)"
       width="7.256"
       height="38.256001"
       id="rect41"
       style="clip-rule:evenodd;fill:#a66803;fill-rule:evenodd" /><polygon
       points="301.337,548.763 295.254,548.094 303.303,455.504 309.385,456.174 "
       id="polygon43"
       style="clip-rule:evenodd;fill:#ffffff;fill-rule:evenodd" /><rect
       x="250.76801"
       y="443.728"
       transform="matrix(-0.994,-0.1095,0.1095,-0.994,452.0702,1012.4959)"
       width="6.1199999"
       height="100.222"
       id="rect45"
       style="clip-rule:evenodd;fill:#ffffff;fill-rule:evenodd" /><polygon
       points="295.254,548.094 260.437,444.988 262.357,444.364 297.175,547.469 "
       id="polygon47"
       style="fill:#ffcd7d" /><polygon
       points="249.683,542.892 303.303,455.504 305,456.595 251.381,543.983 "
       id="polygon49"
       style="fill:#ffcd7d" /><g
       id="g51"><path
         stroke-miterlimit="22.9256"
         d="m 228.493,468.543 4.817,0.472 -3.359,30.366 c -1.914,-0.434 -3.457,-0.942 -4.702,-1.52 l 3.244,-29.318 z"
         id="path53"
         inkscape:connector-curvature="0"
         style="clip-rule:evenodd;fill:#ffffff;fill-rule:evenodd;stroke:#ffffff;stroke-width:0.21600001;stroke-miterlimit:22.92560005" /><path
         d="m 199.712,463.088 4.818,0.471 -2.57,23.236 c -1.633,-0.063 -3.251,-0.118 -4.853,-0.163 l 2.605,-23.544 z"
         id="path55"
         inkscape:connector-curvature="0"
         style="clip-rule:evenodd;fill:#ffffff;fill-rule:evenodd" /><polygon
         points="209.768,487.155 203.378,463.934 204.53,463.56 211.041,487.224 "
         id="polygon57"
         style="fill:#ffcd7d" /><polygon
         points="217.785,487.639 228.433,468.936 229.451,469.591 219.123,487.731 "
         id="polygon59"
         style="fill:#ffcd7d" /></g><path
       d="m 206.133,540.162 c 12.302,-0.879 45.984,-0.588 61.507,0.292 15.523,0.878 36.319,6.443 53.307,11.717 16.988,5.271 35.147,11.714 36.026,13.765 0.879,2.051 -8.494,1.172 -20.503,0.293 -12.008,-0.878 -59.165,-9.372 -67.951,-10.25 -8.787,-0.879 -67.659,-14.939 -62.386,-15.817 z"
       id="path61"
       inkscape:connector-curvature="0"
       style="clip-rule:evenodd;fill:#ffffff;fill-rule:evenodd" /><path
       d="m 474.062,514.267 c -0.405,10.65 -3.989,22.869 -7.851,28.773 -6.385,9.766 -24.631,13.218 -67.943,13.199 -17.436,-0.008 -29.294,-4.827 -34.403,-10.53 28.005,1.469 51.188,1.594 63.779,-0.661 30.831,-5.523 37.273,-8.283 46.017,-29.911 0.128,-0.318 0.262,-0.605 0.401,-0.87 z"
       id="path63"
       inkscape:connector-curvature="0"
       style="clip-rule:evenodd;fill:#cf8713;fill-rule:evenodd" /><ellipse
       transform="matrix(0.1413,-0.99,0.99,0.1413,-158.4023,902.3805)"
       cx="440.95801"
       cy="542.49799"
       rx="4.8000002"
       ry="49.856998"
       id="ellipse65"
       style="clip-rule:evenodd;fill:#f9a822;fill-rule:evenodd" /><path
       d="m 441.636,537.748 c 27.26,3.892 49.054,9.174 48.678,11.798 L 391.601,535.45 c 0.374,-2.623 22.776,-1.596 50.035,2.298 z"
       id="path67"
       inkscape:connector-curvature="0"
       style="clip-rule:evenodd;fill:#ffcb78;fill-rule:evenodd" /></g><text
     id="text69"
     x="461.06808"
     y="127.01163"><tspan
       x="461.06808"
       y="127.01163"
       font-size="73.4809"
       id="tspan71"
       style="font-size:73.48090363px;font-family:Code-Bold;fill:#f47047">Oct 5 - 8</tspan></text>
</svg>