<svg xmlns="http://www.w3.org/2000/svg" xmlns:xlink="http://www.w3.org/1999/xlink" width="429" height="500" viewBox="0 0 429 500"><path clip-rule="evenodd" fill="#c76a35" fill-rule="evenodd" d="M172.792 491.09h71.393v9.67h-71.393z"/><path clip-rule="evenodd" fill="#f6e8d7" fill-rule="evenodd" d="M26.567 277.92h383.007V492.1H26.567z"/><g clip-rule="evenodd" fill-rule="evenodd"><path fill="#f3ac71" d="M39.844 324.06h55v120h-55z"/><path fill="#ade1f9" d="M44.11 326.73h48.532v114.145h-48.53z"/><path fill="#f3ac71" d="M99.844 324.06h54v120h-54z"/><path fill="#ade1f9" d="M102.535 326.73h48.53v114.145h-48.53z"/></g><g clip-rule="evenodd" fill="#c0e7fa" fill-rule="evenodd"><path d="M44.11 326.73h48.532v63.216c-24.902 26.348-48.53 50.93-48.53 50.93V326.728zM102.535 326.73h47.096c1.568.434-21.9 25.938-47.095 52.725V326.73z"/></g><g clip-rule="evenodd" fill-rule="evenodd"><path fill="#f3ac71" d="M280.844 324.06h56v120h-56z"/><path fill="#c0e7fa" d="M285.076 326.73h48.53v114.145h-48.53z"/><path fill="#f3ac71" d="M339.844 324.06h55v120h-55z"/><path fill="#c0e7fa" d="M343.5 326.73h48.53v114.145H343.5z"/></g><g clip-rule="evenodd" fill="#ade1f9" fill-rule="evenodd"><path d="M333.605 389.08v51.794h-48.53M392.03 326.73v114.144H343.5v-62.352"/></g><path clip-rule="evenodd" fill="#df773e" fill-rule="evenodd" d="M2 481.548h432.143v19.213H2z"/><path clip-rule="evenodd" fill="#f48245" fill-rule="evenodd" d="M2 481.548h432.143v6.99H2z"/><path clip-rule="evenodd" fill="#cf8057" fill-rule="evenodd" d="M165.785 328.156h104.57V481.55h-104.57z"/><path d="M176.652 336.973h82.838v54.802h-82.838v-54.802zM259.49 402.8v78.748h-82.838v-78.75h82.838z" clip-rule="evenodd" fill="#ade1f9" fill-rule="evenodd"/><path d="M259.49 336.973v54.802h-61.868l61.868-54.802zm-82.838 144.575l82.838-78.75h-74.314l-8.524 7.55v71.2z" clip-rule="evenodd" fill="#c0e7fa" fill-rule="evenodd"/><path clip-rule="evenodd" fill="#a15641" fill-rule="evenodd" d="M237.942 368.917l-.81.475-21.284-36.215-18.853 36.195-.835-.434 19.245-36.947.39-.75.432.73"/><path clip-rule="evenodd" fill="#aaa9a1" fill-rule="evenodd" d="M26.568 293.824h383.006v4.233H26.568z"/><path d="M409.646 320.096l-32.3-.035H28.127c-.52 0-1.284.47-1.284.944v35.745c5-.12 12.684-1.012 17.637-2.697 10.657 3.627 27.84 3.627 38.125 0 11.752 3.627 28.24 3.627 38.896 0 10.658 3.627 28.63 3.627 38.914 0 10.284 3.627 27.53 3.627 38.187 0 10.66 3.627 27.91 3.627 38.192 0 11.752 3.627 28.272 3.627 38.926 0 10.658 3.627 28.647 3.627 38.932 0 10.283 3.627 28.272 3.627 38.93 0 10.655 3.627 26.33 3.627 38.082 0 4.92 1.735 12.052 2.768 17.91 2.842l.074-36.8z" clip-rule="evenodd" fill="#ccc" fill-rule="evenodd"/><g clip-rule="evenodd" fill-rule="evenodd"><path fill="#e6e7e8" d="M30.245 298.057l-20.157 25.596v9.084h415.45l2.36-8.283-18.324-26.397"/><path d="M43.06 324.454H4.582v18.736c10.626 4.82 27.853 4.82 38.478 0v-18.736z" fill="#f49971"/><path d="M81.535 324.454H43.06v18.736c10.625 4.82 27.85 4.82 38.475 0v-18.736z" fill="#e4e5e5"/><path d="M120.027 324.454H81.55v18.736c10.626 4.82 27.852 4.82 38.477 0v-18.736z" fill="#f49971"/><path d="M158.505 324.454h-38.478v18.736c10.625 4.82 27.854 4.82 38.478 0v-18.736z" fill="#e4e5e5"/><path d="M196.996 324.454h-38.478v18.736c10.626 4.82 27.852 4.82 38.478 0v-18.736z" fill="#f49971"/><path d="M235.474 324.454h-38.478v18.736c10.626 4.82 27.852 4.82 38.478 0v-18.736z" fill="#e4e5e5"/><path d="M273.962 324.454h-38.476v18.736c10.625 4.82 27.853 4.82 38.476 0v-18.736z" fill="#f49971"/><path d="M312.442 324.454h-38.48v18.736c10.628 4.82 27.856 4.82 38.48 0v-18.736z" fill="#e4e5e5"/><path d="M350.933 324.454h-38.48v18.736c10.626 4.82 27.854 4.82 38.48 0v-18.736z" fill="#f49971"/><path d="M389.41 324.454h-38.477v18.736c10.624 4.82 27.852 4.82 38.478 0v-18.736z" fill="#e4e5e5"/><path d="M427.9 324.454h-38.477v18.736c10.626 4.82 27.854 4.82 38.476 0v-18.736z" fill="#f48245"/><path d="M61.385 298.057H26.573c-7.333 8.8-14.66 17.6-21.99 26.397H43.06c6.11-8.798 12.217-17.597 18.325-26.397z" fill="#f9b978"/><path d="M96.197 298.057H61.385c-6.108 8.8-12.216 17.6-18.324 26.397h38.475c4.888-8.798 9.775-17.597 14.662-26.397z" fill="#f1f2f3"/><path d="M131.024 298.057H96.21c-4.885 8.8-9.772 17.6-14.66 26.397h38.478c3.663-8.798 7.33-17.597 10.996-26.397z" fill="#f9b978"/><path d="M165.837 298.057h-34.813l-10.997 26.397h38.478l7.332-26.397z" fill="#f1f2f3"/><path d="M200.663 298.057h-34.816c-2.443 8.8-4.884 17.6-7.33 26.397h38.478c1.222-8.798 2.444-17.597 3.668-26.397z" fill="#f9b978"/><path d="M235.474 298.057h-34.81c-1.226 8.8-2.447 17.6-3.668 26.397h38.478v-26.397z" fill="#f1f2f3"/><path d="M270.3 298.057h-34.815v26.397h38.477l-3.663-26.397z" fill="#f9b978"/><path d="M305.11 298.057H270.3l3.662 26.397h38.48c-2.445-8.798-4.887-17.597-7.33-26.397z" fill="#f1f2f3"/><path d="M339.937 298.057h-34.812l7.33 26.397h38.478c-3.663-8.798-7.33-17.597-10.996-26.397z" fill="#f9b978"/><path d="M374.75 298.057h-34.813c3.667 8.8 7.333 17.6 10.996 26.397h38.478c-4.887-8.798-9.775-17.597-14.66-26.397z" fill="#f1f2f3"/><path d="M409.574 298.057h-34.81c4.885 8.8 9.774 17.6 14.66 26.397h38.475c-6.105-8.798-12.218-17.597-18.326-26.397z" fill="#f9b978"/></g><path d="M37.68 249.676h361.298c11.063 0 20.116 19.834 20.116 44.076v.225H17.563v-.224c0-24.243 9.05-44.077 20.116-44.077z" clip-rule="evenodd" fill="#f79266" fill-rule="evenodd"/><path d="M415.13 267.656c1.1 5.397 1.46 11.405 1.46 18.405H19.387h.21c0-7 .723-13.006 1.822-18.403-2.487 7.334-3.73 17.404-3.73 25.404h2.154v1h400v-1h-.666c0-8-1.56-18.07-4.048-25.404z" clip-rule="evenodd" fill="#df773e" fill-rule="evenodd"/><path clip-rule="evenodd" fill="#b4844d" fill-rule="evenodd" d="M192.697 365.63h48.263v15.704h-48.263z"/><text transform="translate(203 378.186)"><tspan x="0" y="0" font-size="10.602" font-family="Arial-BoldMT" fill="#fbd2c0">O</tspan><tspan x="8.247" y="0" font-size="10.602" font-family="Arial-BoldMT" fill="#fbd2c0">PEN</tspan></text><path d="M153.055 226.695h20.394v21.852h-20.395v-21.852z" fill="#724622"/><path d="M173.45 226.695v3.398l-20.395 2.914v-6.312h20.394z" fill="#662e1f"/><path d="M261.1 226.695h20.396v21.852H261.1v-21.852z" fill="#724622"/><path d="M281.496 226.695v3.398l-20.395 2.914v-6.312h20.396z" fill="#662e1f"/><path d="M234.15 99.223h-26.224c-14.326.244-26.95.487-33.992-6.556-3.884-3.884-5.828-9.712-5.828-17.724V49.935C167.864 22.985 189.958.89 216.91.89c26.95 0 49.048 22.094 49.048 49.045v25.008c0 8.012-1.945 13.84-5.828 17.724-5.828 5.828-15.053 6.556-25.98 6.556zM216.91 5.258c-24.767 0-44.677 20.153-44.677 44.677v25.008c0 6.798 1.458 11.654 4.614 14.568 5.825 5.585 17.48 5.585 30.835 5.344h18.452c13.354.24 25.01.485 30.837-5.343 3.156-3.155 4.612-7.77 4.612-14.567V49.935c.244-24.524-19.91-44.677-44.674-44.677z" fill="#898989"/><path d="M289.266 64.26l-9.712-8.984-8.257 8.985-9.71-8.984-8.014 8.985-9.954-8.984-8.257 8.74-9.468-8.74-8.256 8.985-9.713-8.984-8.012 8.74-9.956-8.74-8.013 8.985-9.712-8.984-8.253 8.985-9.712-8.984-8.256 8.985-9.712-8.984 11.412 132.814 3.398 38.605h160.98l-3.158-38.605-11.41-132.814-8.258 8.985z" fill="#8d8e8e"/><path d="M287.324 63.774l-8.012-8.982-9.956 8.982-8.013-8.982-9.954 8.982-8.015-8.982-9.955 8.74-8.012-8.74-9.712 8.982-8.012-8.982-9.712 8.74-8.256-8.74-9.954 8.982-8.015-8.982-9.71 8.982-8.013-8.982-9.955 8.982-8.013-8.982-13.354 133.298-3.643 38.605h160.976l3.884-38.605 13.116-133.3-9.712 8.984z" fill="#ededed"/><path d="M124.89 166.965l-5.827 59.73H280.04l5.826-59.73H124.89z" fill="#dbdbdb"/><g><g transform="translate(-190.56 -134.61)"><defs><path id="a" d="M424.953 262.482l-18.21-11.167s-33.023-20.153-34.965-21.367c-1.942-1.215-4.128-.485-4.37 1.943-.486 4.128-4.37 43.22-4.37 43.22s-4.13 42.247-4.373 43.946c-.242 1.942 1.214 2.67 3.158 1.7 1.942-.973 40.062-21.854 40.062-21.854l20.395-11.167s17.24-9.47 19.424-10.685c2.186-1.214 2.186-2.913.485-3.884-1.455-.728-17.237-10.684-17.237-10.684z"/></defs><clipPath id="b"><use xlink:href="#a" overflow="visible" width="100%" height="100%"/></clipPath><path clip-path="url(#b)" d="M368.137 228.006l-4.615 47.346-4.856 47.103 52.446-47.103-42.975-47.346z" fill="#44c2c2"/></g><g transform="translate(-190.56 -134.61)"><defs><path id="c" d="M424.953 262.482l-18.21-11.167s-33.023-20.153-34.965-21.367c-1.942-1.215-4.128-.485-4.37 1.943-.486 4.128-4.37 43.22-4.37 43.22s-4.13 42.247-4.373 43.946c-.242 1.942 1.214 2.67 3.158 1.7 1.942-.973 40.062-21.854 40.062-21.854l20.395-11.167s17.24-9.47 19.424-10.685c2.186-1.214 2.186-2.913.485-3.884-1.455-.728-17.237-10.684-17.237-10.684z"/></defs><clipPath id="d"><use xlink:href="#c" overflow="visible" width="100%" height="100%"/></clipPath><path clip-path="url(#d)" d="M424.953 262.482l-17.97-10.926-38.846-23.794v.244l42.976 47.346 13.84-12.87z" fill="#a3d89f"/></g><g transform="translate(-190.56 -134.61)"><defs><path id="e" d="M424.953 262.482l-18.21-11.167s-33.023-20.153-34.965-21.367c-1.942-1.215-4.128-.485-4.37 1.943-.486 4.128-4.37 43.22-4.37 43.22s-4.13 42.247-4.373 43.946c-.242 1.942 1.214 2.67 3.158 1.7 1.942-.973 40.062-21.854 40.062-21.854l20.395-11.167s17.24-9.47 19.424-10.685c2.186-1.214 2.186-2.913.485-3.884-1.455-.728-17.237-10.684-17.237-10.684z"/></defs><clipPath id="f"><use xlink:href="#e" overflow="visible" width="100%" height="100%"/></clipPath><path clip-path="url(#f)" d="M358.666 322.455v.244l43.462-23.797 20.396-10.925-11.412-12.625-52.446 47.102z" fill="#c83a74"/></g><g transform="translate(-190.56 -134.61)"><defs><path id="g" d="M424.953 262.482l-18.21-11.167s-33.023-20.153-34.965-21.367c-1.942-1.215-4.128-.485-4.37 1.943-.486 4.128-4.37 43.22-4.37 43.22s-4.13 42.247-4.373 43.946c-.242 1.942 1.214 2.67 3.158 1.7 1.942-.973 40.062-21.854 40.062-21.854l20.395-11.167s17.24-9.47 19.424-10.685c2.186-1.214 2.186-2.913.485-3.884-1.455-.728-17.237-10.684-17.237-10.684z"/></defs><clipPath id="h"><use xlink:href="#g" overflow="visible" width="100%" height="100%"/></clipPath><path clip-path="url(#h)" d="M424.953 262.482l-13.84 12.87 11.41 12.625 23.31-12.625-20.88-12.87z" fill="#ffa376"/></g></g></svg>