<?xml version="1.0" encoding="UTF-8" standalone="no"?>
<!-- Generator: Adobe Illustrator 16.0.0, SVG Export Plug-In . SVG Version: 6.00 Build 0)  -->

<svg
   xmlns:dc="http://purl.org/dc/elements/1.1/"
   xmlns:cc="http://creativecommons.org/ns#"
   xmlns:rdf="http://www.w3.org/1999/02/22-rdf-syntax-ns#"
   xmlns:svg="http://www.w3.org/2000/svg"
   xmlns="http://www.w3.org/2000/svg"
   xmlns:xlink="http://www.w3.org/1999/xlink"
   xmlns:sodipodi="http://sodipodi.sourceforge.net/DTD/sodipodi-0.dtd"
   xmlns:inkscape="http://www.inkscape.org/namespaces/inkscape"
   version="1.1"
   x="0px"
   y="0px"
   width="429"
   height="500"
   viewBox="0 0 429 500"
   enable-background="new 0 0 800 800"
   xml:space="preserve"
   id="svg2"
   inkscape:version="0.91 r13725"
   sodipodi:docname="app.svg"><metadata
     id="metadata181"><rdf:RDF><cc:Work
         rdf:about=""><dc:format>image/svg+xml</dc:format><dc:type
           rdf:resource="http://purl.org/dc/dcmitype/StillImage" /><dc:title></dc:title></cc:Work></rdf:RDF></metadata><defs
     id="defs179" /><sodipodi:namedview
     pagecolor="#ffffff"
     bordercolor="#666666"
     borderopacity="1"
     objecttolerance="10"
     gridtolerance="10"
     guidetolerance="10"
     inkscape:pageopacity="0"
     inkscape:pageshadow="2"
     inkscape:window-width="1920"
     inkscape:window-height="1056"
     id="namedview177"
     showgrid="false"
     inkscape:zoom="0.834386"
     inkscape:cx="400"
     inkscape:cy="400"
     inkscape:window-x="0"
     inkscape:window-y="24"
     inkscape:window-maximized="1"
     inkscape:current-layer="svg2" /><g
     id="background"
     transform="translate(0,-300)" /><g
     id="objects"
     transform="translate(-190.55929,-134.60892)"><rect
       x="363.35101"
       y="625.70001"
       width="71.392998"
       height="9.6700001"
       id="rect6"
       style="clip-rule:evenodd;fill:#c76a35;fill-rule:evenodd" /><g
       id="g8"><rect
         x="217.12601"
         y="412.52899"
         width="383.00699"
         height="214.181"
         id="rect10"
         style="clip-rule:evenodd;fill:#f6e8d7;fill-rule:evenodd" /><g
         id="g12"><rect
           x="230.403"
           y="458.67001"
           width="55"
           height="120"
           id="rect14"
           style="clip-rule:evenodd;fill:#f3ac71;fill-rule:evenodd" /><rect
           x="234.67"
           y="461.33801"
           width="48.530998"
           height="114.146"
           id="rect16"
           style="clip-rule:evenodd;fill:#ade1f9;fill-rule:evenodd" /><rect
           x="290.40302"
           y="458.67001"
           width="54"
           height="120"
           id="rect18"
           style="clip-rule:evenodd;fill:#f3ac71;fill-rule:evenodd" /><rect
           x="293.09399"
           y="461.33801"
           width="48.529999"
           height="114.146"
           id="rect20"
           style="clip-rule:evenodd;fill:#ade1f9;fill-rule:evenodd" /></g><g
         id="g22"><path
           d="m 234.67,461.338 48.531,0 0,63.217 c -24.902,26.348 -48.531,50.929 -48.531,50.929 l 0,-114.146 z"
           id="path24"
           inkscape:connector-curvature="0"
           style="clip-rule:evenodd;fill:#c0e7fa;fill-rule:evenodd" /><path
           d="m 293.094,461.338 47.096,0 c 1.567,0.435 -21.9,25.939 -47.096,52.726 l 0,-52.726 z"
           id="path26"
           inkscape:connector-curvature="0"
           style="clip-rule:evenodd;fill:#c0e7fa;fill-rule:evenodd" /></g><g
         id="g28"><rect
           x="471.40302"
           y="458.67001"
           width="56"
           height="120"
           id="rect30"
           style="clip-rule:evenodd;fill:#f3ac71;fill-rule:evenodd" /><rect
           x="475.63501"
           y="461.33801"
           width="48.528999"
           height="114.146"
           id="rect32"
           style="clip-rule:evenodd;fill:#c0e7fa;fill-rule:evenodd" /><rect
           x="530.40302"
           y="458.67001"
           width="55"
           height="120"
           id="rect34"
           style="clip-rule:evenodd;fill:#f3ac71;fill-rule:evenodd" /><rect
           x="534.05798"
           y="461.33801"
           width="48.530998"
           height="114.146"
           id="rect36"
           style="clip-rule:evenodd;fill:#c0e7fa;fill-rule:evenodd" /></g><g
         id="g38"><polygon
           points="524.164,523.69 524.164,575.483 475.635,575.483 "
           id="polygon40"
           style="clip-rule:evenodd;fill:#ade1f9;fill-rule:evenodd" /><polygon
           points="582.589,461.338 582.589,575.483 534.058,575.483 534.058,513.131 "
           id="polygon42"
           style="clip-rule:evenodd;fill:#ade1f9;fill-rule:evenodd" /></g><rect
         x="192.55901"
         y="616.15698"
         width="432.14301"
         height="19.212999"
         id="rect44"
         style="clip-rule:evenodd;fill:#df773e;fill-rule:evenodd" /><rect
         x="192.56"
         y="616.15698"
         width="432.142"
         height="6.9899998"
         id="rect46"
         style="clip-rule:evenodd;fill:#f48245;fill-rule:evenodd" /><rect
         x="356.34399"
         y="462.76501"
         width="104.571"
         height="153.39301"
         id="rect48"
         style="clip-rule:evenodd;fill:#cf8057;fill-rule:evenodd" /><path
         d="m 367.211,471.582 82.838,0 0,54.802 -82.838,0 0,-54.802 0,0 z m 82.838,65.826 0,78.749 -82.838,0 0,-78.749 82.838,0 z"
         id="path50"
         inkscape:connector-curvature="0"
         style="clip-rule:evenodd;fill:#ade1f9;fill-rule:evenodd" /><path
         d="m 450.049,471.582 0,54.802 -61.868,0 61.868,-54.802 0,0 z m -82.838,144.575 82.838,-78.749 -74.314,0 -8.524,7.55 0,71.199 z"
         id="path52"
         inkscape:connector-curvature="0"
         style="clip-rule:evenodd;fill:#c0e7fa;fill-rule:evenodd" /><polygon
         points="428.501,503.526 427.692,504.001 406.407,467.786 387.554,503.981 386.719,503.547 405.964,466.6 406.355,465.848 406.786,466.58 "
         id="polygon54"
         style="clip-rule:evenodd;fill:#a15641;fill-rule:evenodd" /><rect
         x="217.127"
         y="428.43301"
         width="383.00601"
         height="4.2329998"
         id="rect56"
         style="clip-rule:evenodd;fill:#aaa9a1;fill-rule:evenodd" /><path
         d="m 600.205,454.705 -32.299,-0.035 -0.014,0 -34.915,0 -34.914,0 -0.015,0 -34.914,0 -34.917,0 -0.012,0 -34.914,0 -34.918,0 -0.01,0 -34.916,0 -34.916,0 -0.015,0 -34.915,0 -31.232,0 c -1.228,0 -2.455,0 -3.683,0 -0.521,0 -1.284,0.469 -1.284,0.943 l 0,35.745 c 5,-0.119 12.684,-1.011 17.637,-2.696 10.657,3.627 27.841,3.627 38.125,0 11.752,3.627 28.239,3.627 38.896,0 10.657,3.627 28.63,3.627 38.913,0 10.284,3.627 27.53,3.627 38.187,0 10.658,3.627 27.908,3.627 38.191,0 11.752,3.627 28.272,3.627 38.926,0 10.658,3.627 28.647,3.627 38.932,0 10.283,3.627 28.272,3.627 38.93,0 10.655,3.627 26.329,3.627 38.082,0 4.92,1.735 12.052,2.768 17.911,2.842 l 0.073,-36.799 z"
         id="path58"
         inkscape:connector-curvature="0"
         style="clip-rule:evenodd;fill:#cccccc;fill-rule:evenodd" /><g
         id="g60"><polygon
           points="220.804,432.666 200.647,458.262 200.647,467.346 616.096,467.346 618.458,459.063 600.133,432.666 "
           id="polygon62"
           style="clip-rule:evenodd;fill:#e6e7e8;fill-rule:evenodd" /><path
           d="m 233.619,459.063 c -12.827,0 -25.652,0 -38.478,0 0,6.245 0,12.49 0,18.736 10.626,4.819 27.853,4.819 38.478,0 0,-6.245 0,-12.49 0,-18.736 z"
           id="path64"
           inkscape:connector-curvature="0"
           style="clip-rule:evenodd;fill:#f49971;fill-rule:evenodd" /><path
           d="m 272.094,459.063 c -12.824,0 -25.649,0 -38.475,0 0,6.245 0,12.49 0,18.736 10.625,4.819 27.85,4.819 38.475,0 0,-6.245 0,-12.49 0,-18.736 z"
           id="path66"
           inkscape:connector-curvature="0"
           style="clip-rule:evenodd;fill:#e4e5e5;fill-rule:evenodd" /><path
           d="m 310.586,459.063 c -12.825,0 -25.651,0 -38.477,0 0,6.245 0,12.49 0,18.736 10.626,4.819 27.852,4.819 38.477,0 0,-6.245 0,-12.49 0,-18.736 z"
           id="path68"
           inkscape:connector-curvature="0"
           style="clip-rule:evenodd;fill:#f49971;fill-rule:evenodd" /><path
           d="m 349.064,459.063 c -12.826,0 -25.651,0 -38.478,0 0,6.245 0,12.49 0,18.736 10.625,4.819 27.854,4.819 38.478,0 0,-6.245 0,-12.49 0,-18.736 z"
           id="path70"
           inkscape:connector-curvature="0"
           style="clip-rule:evenodd;fill:#e4e5e5;fill-rule:evenodd" /><path
           d="m 387.555,459.063 c -12.826,0 -25.653,0 -38.478,0 0,6.245 0,12.49 0,18.736 10.626,4.819 27.852,4.819 38.478,0 0,-6.245 0,-12.49 0,-18.736 z"
           id="path72"
           inkscape:connector-curvature="0"
           style="clip-rule:evenodd;fill:#f49971;fill-rule:evenodd" /><path
           d="m 426.033,459.063 c -12.826,0 -25.651,0 -38.478,0 0,6.245 0,12.49 0,18.736 10.626,4.819 27.852,4.819 38.478,0 0,-6.245 0,-12.49 0,-18.736 z"
           id="path74"
           inkscape:connector-curvature="0"
           style="clip-rule:evenodd;fill:#e4e5e5;fill-rule:evenodd" /><path
           d="m 464.521,459.063 c -12.822,0 -25.648,0 -38.476,0 0,6.245 0,12.49 0,18.736 10.625,4.819 27.853,4.819 38.476,0 0,-6.245 0,-12.49 0,-18.736 z"
           id="path76"
           inkscape:connector-curvature="0"
           style="clip-rule:evenodd;fill:#f49971;fill-rule:evenodd" /><path
           d="m 503.001,459.063 c -12.826,0 -25.653,0 -38.479,0 0,6.245 0,12.49 0,18.736 10.627,4.819 27.855,4.819 38.479,0 0,-6.245 0,-12.49 0,-18.736 z"
           id="path78"
           inkscape:connector-curvature="0"
           style="clip-rule:evenodd;fill:#e4e5e5;fill-rule:evenodd" /><path
           d="m 541.492,459.063 c -12.825,0 -25.649,0 -38.479,0 0,6.245 0,12.49 0,18.736 10.625,4.819 27.853,4.819 38.479,0 0,-6.245 0,-12.49 0,-18.736 z"
           id="path80"
           inkscape:connector-curvature="0"
           style="clip-rule:evenodd;fill:#f49971;fill-rule:evenodd" /><path
           d="m 579.97,459.063 c -12.826,0 -25.653,0 -38.478,0 0,6.245 0,12.49 0,18.736 10.624,4.819 27.852,4.819 38.478,0 0,-6.245 0,-12.49 0,-18.736 z"
           id="path82"
           inkscape:connector-curvature="0"
           style="clip-rule:evenodd;fill:#e4e5e5;fill-rule:evenodd" /><path
           d="m 618.458,459.063 c -12.822,0 -25.65,0 -38.476,0 0,6.245 0,12.49 0,18.736 10.626,4.819 27.854,4.819 38.476,0 0,-6.245 0,-12.49 0,-18.736 z"
           id="path84"
           inkscape:connector-curvature="0"
           style="clip-rule:evenodd;fill:#f48245;fill-rule:evenodd" /><path
           d="m 251.944,432.666 c -11.605,0 -23.207,0 -34.812,0 -7.333,8.8 -14.66,17.599 -21.991,26.397 12.826,0 25.651,0 38.479,0 6.108,-8.798 12.216,-17.597 18.324,-26.397 z"
           id="path86"
           inkscape:connector-curvature="0"
           style="clip-rule:evenodd;fill:#f9b978;fill-rule:evenodd" /><path
           d="m 286.756,432.666 c -11.603,0 -23.209,0 -34.812,0 -6.108,8.8 -12.216,17.599 -18.324,26.397 12.824,0 25.649,0 38.474,0 4.888,-8.798 9.775,-17.597 14.662,-26.397 z"
           id="path88"
           inkscape:connector-curvature="0"
           style="clip-rule:evenodd;fill:#f1f2f3;fill-rule:evenodd" /><path
           d="m 321.583,432.666 c -11.604,0 -23.208,0 -34.813,0 -4.886,8.8 -9.773,17.599 -14.66,26.397 12.825,0 25.652,0 38.477,0 3.663,-8.798 7.33,-17.597 10.996,-26.397 z"
           id="path90"
           inkscape:connector-curvature="0"
           style="clip-rule:evenodd;fill:#f9b978;fill-rule:evenodd" /><path
           d="m 356.396,432.666 c -11.605,0 -23.208,0 -34.813,0 -3.666,8.8 -7.333,17.599 -10.997,26.397 12.826,0 25.652,0 38.478,0 2.443,-8.798 4.887,-17.597 7.332,-26.397 z"
           id="path92"
           inkscape:connector-curvature="0"
           style="clip-rule:evenodd;fill:#f1f2f3;fill-rule:evenodd" /><path
           d="m 391.222,432.666 c -11.606,0 -23.209,0 -34.816,0 -2.443,8.8 -4.884,17.599 -7.33,26.397 12.825,0 25.652,0 38.478,0 1.222,-8.798 2.444,-17.597 3.668,-26.397 z"
           id="path94"
           inkscape:connector-curvature="0"
           style="clip-rule:evenodd;fill:#f9b978;fill-rule:evenodd" /><path
           d="m 426.033,432.666 c -11.604,0 -23.208,0 -34.811,0 -1.225,8.8 -2.446,17.599 -3.667,26.397 12.827,0 25.652,0 38.478,0 0,-8.798 0,-17.597 0,-26.397 z"
           id="path96"
           inkscape:connector-curvature="0"
           style="clip-rule:evenodd;fill:#f1f2f3;fill-rule:evenodd" /><path
           d="m 460.858,432.666 c -11.605,0 -23.209,0 -34.814,0 0.001,8.8 0.001,17.599 0.001,26.397 12.827,0 25.653,0 38.476,0 -1.219,-8.798 -2.442,-17.597 -3.663,-26.397 z"
           id="path98"
           inkscape:connector-curvature="0"
           style="clip-rule:evenodd;fill:#f9b978;fill-rule:evenodd" /><path
           d="m 495.67,432.666 c -11.604,0 -23.209,0 -34.812,0 1.221,8.8 2.443,17.599 3.663,26.397 12.826,0 25.653,0 38.479,0 -2.444,-8.798 -4.886,-17.597 -7.33,-26.397 z"
           id="path100"
           inkscape:connector-curvature="0"
           style="clip-rule:evenodd;fill:#f1f2f3;fill-rule:evenodd" /><path
           d="m 530.496,432.666 c -11.604,0 -23.208,0 -34.812,0 2.444,8.8 4.887,17.599 7.329,26.397 12.829,0 25.653,0 38.479,0 -3.663,-8.798 -7.329,-17.597 -10.996,-26.397 z"
           id="path102"
           inkscape:connector-curvature="0"
           style="clip-rule:evenodd;fill:#f9b978;fill-rule:evenodd" /><path
           d="m 565.308,432.666 c -11.603,0 -23.208,0 -34.812,0 3.667,8.8 7.333,17.599 10.996,26.397 12.825,0 25.651,0 38.478,0 -4.888,-8.798 -9.776,-17.597 -14.662,-26.397 z"
           id="path104"
           inkscape:connector-curvature="0"
           style="clip-rule:evenodd;fill:#f1f2f3;fill-rule:evenodd" /><path
           d="m 600.133,432.666 c -11.603,0 -23.205,0 -34.811,0 4.886,8.8 9.775,17.599 14.66,26.397 12.825,0 25.65,0 38.476,0 -6.104,-8.798 -12.217,-17.597 -18.325,-26.397 z"
           id="path106"
           inkscape:connector-curvature="0"
           style="clip-rule:evenodd;fill:#f9b978;fill-rule:evenodd" /></g><path
         d="m 228.239,384.285 361.298,0 c 11.063,0 20.116,19.834 20.116,44.076 l 0,0.001 -10e-4,0.224 -401.529,0 0,-0.224 0,-0.001 c 0,-24.242 9.051,-44.076 20.116,-44.076 z"
         id="path108"
         inkscape:connector-curvature="0"
         style="clip-rule:evenodd;fill:#f79266;fill-rule:evenodd" /><path
         d="m 605.689,402.265 c 1.1,5.397 1.459,11.405 1.459,18.405 l -0.257,0 0,0 -396.944,0 0,0 0.211,0 c 0,-7 0.722,-13.007 1.821,-18.404 -2.487,7.334 -3.73,17.404 -3.73,25.404 l 2.154,0 0,1 400,0 0,-1 -0.666,0 c 0,-8 -1.56,-18.071 -4.048,-25.405 z"
         id="path110"
         inkscape:connector-curvature="0"
         style="clip-rule:evenodd;fill:#df773e;fill-rule:evenodd" /><rect
         x="383.25601"
         y="500.23801"
         width="48.263"
         height="15.705"
         id="rect112"
         style="clip-rule:evenodd;fill:#b4844d;fill-rule:evenodd" /><text
         transform="translate(393.5581,512.7949)"
         id="text114"><tspan
           x="0"
           y="0"
           font-size="10.6018"
           id="tspan116"
           style="font-size:10.60179996px;font-family:Arial-BoldMT;fill:#fbd2c0">O</tspan><tspan
           x="8.2469997"
           y="0"
           font-size="10.6018"
           id="tspan118"
           style="font-size:10.60179996px;font-family:Arial-BoldMT;fill:#fbd2c0">PEN</tspan></text>
</g><path
       d="m 343.614,361.304 20.394,0 0,21.852 -20.394,0 0,-21.852 z"
       id="path120"
       inkscape:connector-curvature="0"
       style="fill:#724622" /><path
       d="m 364.008,361.304 0,3.398 -20.394,2.914 0,-6.312 20.394,0 z"
       id="path122"
       inkscape:connector-curvature="0"
       style="fill:#662e1f" /><path
       d="m 451.66,361.304 20.395,0 0,21.852 -20.395,0 0,-21.852 z"
       id="path124"
       inkscape:connector-curvature="0"
       style="fill:#724622" /><path
       d="m 472.055,361.304 0,3.398 -20.395,2.914 0,-6.312 20.395,0 z"
       id="path126"
       inkscape:connector-curvature="0"
       style="fill:#662e1f" /><path
       d="m 424.708,233.832 -26.223,0 c -14.326,0.244 -26.95,0.487 -33.992,-6.556 -3.884,-3.884 -5.828,-9.712 -5.828,-17.724 l 0,-25.008 c -0.242,-26.951 21.852,-49.046 48.805,-49.046 26.949,0 49.047,22.095 49.047,49.046 l 0,25.008 c 0,8.012 -1.945,13.84 -5.828,17.724 -5.828,5.828 -15.053,6.556 -25.981,6.556 z m -17.237,-93.965 c -24.767,0 -44.677,20.153 -44.677,44.677 l 0,25.008 c 0,6.798 1.458,11.654 4.614,14.568 5.826,5.584 17.482,5.584 30.836,5.343 l 18.452,0 c 13.354,0.241 25.009,0.485 30.837,-5.343 3.156,-3.156 4.612,-7.77 4.612,-14.568 l 0,-25.008 c 0.244,-24.524 -19.909,-44.677 -44.674,-44.677 z"
       id="path128"
       inkscape:connector-curvature="0"
       style="fill:#898989" /><path
       d="m 479.825,198.87 -9.712,-8.985 -8.257,8.985 -9.711,-8.985 -8.013,8.985 -9.954,-8.985 -8.256,8.741 -9.468,-8.741 -8.256,8.985 -9.712,-8.985 -8.012,8.741 -9.956,-8.741 -8.012,8.985 -9.712,-8.985 -8.253,8.985 -9.712,-8.985 -8.256,8.985 -9.712,-8.985 11.412,132.814 3.398,38.605 160.979,0 -3.157,-38.605 -11.411,-132.814 -8.257,8.985 z"
       id="path130"
       inkscape:connector-curvature="0"
       style="fill:#8d8e8e" /><path
       d="m 477.883,198.383 -8.012,-8.982 -9.956,8.982 -8.013,-8.982 -9.954,8.982 -8.014,-8.982 -9.955,8.74 -8.012,-8.74 -9.712,8.982 -8.012,-8.982 -9.712,8.74 -8.256,-8.74 -9.954,8.982 -8.015,-8.982 -9.711,8.982 -8.012,-8.982 -9.955,8.982 -8.012,-8.982 -13.354,133.298 -3.643,38.605 160.976,0 3.884,-38.605 13.116,-133.299 -9.712,8.983 z"
       id="path132"
       inkscape:connector-curvature="0"
       style="fill:#ededed" /><path
       d="m 315.448,301.574 -5.826,59.73 160.976,0 5.827,-59.73 -160.977,0 z"
       id="path134"
       inkscape:connector-curvature="0"
       style="fill:#dbdbdb" /><g
       id="PLAY_1_"><g
         id="g137"><defs
           id="defs139"><path
             id="SVGID_1_"
             d="m 424.953,262.482 -18.21,-11.167 c 0,0 -33.023,-20.153 -34.965,-21.367 -1.942,-1.215 -4.128,-0.485 -4.37,1.943 -0.486,4.127 -4.371,43.218 -4.371,43.218 0,0 -4.128,42.248 -4.372,43.947 -0.242,1.942 1.214,2.671 3.158,1.699 1.942,-0.972 40.062,-21.853 40.062,-21.853 l 20.395,-11.167 c 0,0 17.24,-9.471 19.424,-10.685 2.186,-1.214 2.186,-2.913 0.485,-3.884 -1.454,-0.728 -17.236,-10.684 -17.236,-10.684 l 0,0 z"
             inkscape:connector-curvature="0" /></defs><clipPath
           id="SVGID_2_"><use
             xlink:href="#SVGID_1_"
             overflow="visible"
             id="use143"
             style="overflow:visible"
             x="0"
             y="0"
             width="100%"
             height="100%" /></clipPath><path
           clip-path="url(#SVGID_2_)"
           d="m 368.137,228.006 -4.615,47.346 -4.856,47.103 52.446,-47.103 -42.975,-47.346 z"
           id="path145"
           inkscape:connector-curvature="0"
           style="fill:#44c2c2" /></g><g
         id="g147"><defs
           id="defs149"><path
             id="SVGID_3_"
             d="m 424.953,262.482 -18.21,-11.167 c 0,0 -33.023,-20.153 -34.965,-21.367 -1.942,-1.215 -4.128,-0.485 -4.37,1.943 -0.486,4.127 -4.371,43.218 -4.371,43.218 0,0 -4.128,42.248 -4.372,43.947 -0.242,1.942 1.214,2.671 3.158,1.699 1.942,-0.972 40.062,-21.853 40.062,-21.853 l 20.395,-11.167 c 0,0 17.24,-9.471 19.424,-10.685 2.186,-1.214 2.186,-2.913 0.485,-3.884 -1.454,-0.728 -17.236,-10.684 -17.236,-10.684 l 0,0 z"
             inkscape:connector-curvature="0" /></defs><clipPath
           id="SVGID_4_"><use
             xlink:href="#SVGID_3_"
             overflow="visible"
             id="use153"
             style="overflow:visible"
             x="0"
             y="0"
             width="100%"
             height="100%" /></clipPath><path
           clip-path="url(#SVGID_4_)"
           d="m 424.953,262.482 -17.969,-10.926 -38.847,-23.794 0,0.244 42.976,47.346 13.84,-12.87 z"
           id="path155"
           inkscape:connector-curvature="0"
           style="fill:#a3d89f" /></g><g
         id="g157"><defs
           id="defs159"><path
             id="SVGID_5_"
             d="m 424.953,262.482 -18.21,-11.167 c 0,0 -33.023,-20.153 -34.965,-21.367 -1.942,-1.215 -4.128,-0.485 -4.37,1.943 -0.486,4.127 -4.371,43.218 -4.371,43.218 0,0 -4.128,42.248 -4.372,43.947 -0.242,1.942 1.214,2.671 3.158,1.699 1.942,-0.972 40.062,-21.853 40.062,-21.853 l 20.395,-11.167 c 0,0 17.24,-9.471 19.424,-10.685 2.186,-1.214 2.186,-2.913 0.485,-3.884 -1.454,-0.728 -17.236,-10.684 -17.236,-10.684 l 0,0 z"
             inkscape:connector-curvature="0" /></defs><clipPath
           id="SVGID_6_"><use
             xlink:href="#SVGID_5_"
             overflow="visible"
             id="use163"
             style="overflow:visible"
             x="0"
             y="0"
             width="100%"
             height="100%" /></clipPath><path
           clip-path="url(#SVGID_6_)"
           d="m 358.666,322.455 0,0.244 43.462,-23.796 20.396,-10.925 -11.412,-12.625 -52.446,47.102 z"
           id="path165"
           inkscape:connector-curvature="0"
           style="fill:#c83a74" /></g><g
         id="g167"><defs
           id="defs169"><path
             id="SVGID_7_"
             d="m 424.953,262.482 -18.21,-11.167 c 0,0 -33.023,-20.153 -34.965,-21.367 -1.942,-1.215 -4.128,-0.485 -4.37,1.943 -0.486,4.127 -4.371,43.218 -4.371,43.218 0,0 -4.128,42.248 -4.372,43.947 -0.242,1.942 1.214,2.671 3.158,1.699 1.942,-0.972 40.062,-21.853 40.062,-21.853 l 20.395,-11.167 c 0,0 17.24,-9.471 19.424,-10.685 2.186,-1.214 2.186,-2.913 0.485,-3.884 -1.454,-0.728 -17.236,-10.684 -17.236,-10.684 l 0,0 z"
             inkscape:connector-curvature="0" /></defs><clipPath
           id="SVGID_8_"><use
             xlink:href="#SVGID_7_"
             overflow="visible"
             id="use173"
             style="overflow:visible"
             x="0"
             y="0"
             width="100%"
             height="100%" /></clipPath><path
           clip-path="url(#SVGID_8_)"
           d="m 424.953,262.482 -13.841,12.87 11.412,12.625 23.308,-12.625 -20.879,-12.87 z"
           id="path175"
           inkscape:connector-curvature="0"
           style="fill:#ffa376" /></g></g></g></svg>