<?xml version="1.0" encoding="utf-8"?>
<!-- Generator: Adobe Illustrator 16.0.0, SVG Export Plug-In . SVG Version: 6.00 Build 0)  -->
<!DOCTYPE svg PUBLIC "-//W3C//DTD SVG 1.1//EN" "http://www.w3.org/Graphics/SVG/1.1/DTD/svg11.dtd">
<svg version="1.1" id="Layer_1" xmlns="http://www.w3.org/2000/svg" xmlns:xlink="http://www.w3.org/1999/xlink" x="0px" y="0px"
	 width="200px" height="200px" viewBox="0 0 200 200" enable-background="new 0 0 200 200" xml:space="preserve">
<g>
	<g>
		<g>
			<rect x="63.295" y="176.304" fill="#DBDBDB" width="29.855" height="7.648"/>
		</g>
		<g>
			<rect x="89.214" y="174.087" fill="#DBDBDB" width="15.702" height="3.54"/>
		</g>
		<g>
			<rect x="113.767" y="172.628" fill="#DBDBDB" width="9.682" height="4.999"/>
		</g>
		<g>
			<rect x="45.206" y="179.209" fill="#DBDBDB" width="15.442" height="3.125"/>
		</g>
		<g>
			<rect x="38.211" y="175.127" fill="#F9F9F9" width="8.572" height="6.748"/>
		</g>
		<g>
			<rect x="106.321" y="174.878" fill="#C7A65A" width="8.563" height="4.758"/>
		</g>
		<g>
			<path fill="#FFFFFF" d="M110.385,38.713c0,0-19.024,99.116-36.187,121.643l36.187,4.507V38.713z"/>
		</g>
		<g>
			<path fill="#FFFFFF" d="M136.627,65.959c0,0,3.595,64.361-4.209,84.099c0,0,16.993,6.469,29.854,8.797
				c12.862,2.326,13.187,6.007,13.187,6.007S146.849,86.243,136.627,65.959z"/>
		</g>
		<g>
			<path fill="#C8F7C6" d="M110.385,12.325c0,0,22.033,30.392,64.645,155.11l2.074-0.228c0,0-35.541-110.903-64.719-156.385
				L110.385,12.325z"/>
		</g>
		<g>
			<rect x="109.248" y="10.823" fill="#C7A65A" width="2.273" height="169.305"/>
		</g>
		<g>
			<rect x="107.688" y="169.11" fill="#E2C07D" width="5.394" height="10.525"/>
		</g>
		<g>
			<rect x="82.414" y="177.188" fill="#F9F9F9" width="56.917" height="6.765"/>
		</g>
		<g>
			<rect x="118.607" y="175.856" fill="#F9F9F9" width="13.811" height="3.353"/>
		</g>
		<g>
			<path fill="#34485E" d="M144.912,194.033l-97.492-0.128c-4.052-0.06-7.613-4.507-7.942-8.545c0,0-0.689-2.5-0.254-3.121
				c70.839,1.565,123.048-3.877,123.048-3.877l-0.101,0.764C161.033,187.754,153.613,194.162,144.912,194.033z"/>
		</g>
		<g>
			<rect x="113.767" y="97.711" fill="#FFFFFF" width="8.854" height="3.581"/>
		</g>
		<g>
			<rect x="111.521" y="100.899" fill="#FFFFFF" width="12.448" height="1.55"/>
		</g>
		<g>
			<path fill="#FFFFFF" d="M128.611,176.368c-1.932,0-3.098-0.08-3.13-0.083l0.062-0.855c0.093,0.005,9.301,0.646,19.165-1.76
				c10.38-2.532,29.699-7.245,38.221-7.367l0.014,0.856c-8.427,0.122-28.422,5.001-38.03,7.344
				C138.413,176.089,132.193,176.368,128.611,176.368z"/>
		</g>
		<g>
			<rect x="110.077" y="5.965" fill="#A38241" width="0.616" height="4.857"/>
		</g>
		<g>
			<path fill="#FFFFFF" d="M128.612,179.052c-1.931,0-3.099-0.082-3.131-0.085l0.062-0.855c0.093,0.007,9.299,0.648,19.165-1.758
				c10.38-2.533,29.699-7.246,38.221-7.368l0.014,0.857c-8.427,0.121-28.422,5-38.03,7.343
				C138.415,178.771,132.196,179.052,128.612,179.052z"/>
		</g>
		<g>
			<path fill="#FFFFFF" d="M133.414,180.312c-5.399,0-9.449-0.667-9.516-0.68l0.143-0.846c0.109,0.018,11.067,1.826,20.913-0.577
				c10.791-2.632,29.706-6.392,37.976-6.511l0.014,0.857c-8.205,0.119-27.035,3.866-37.786,6.488
				C141.163,180.019,136.992,180.312,133.414,180.312z"/>
		</g>
		<g>
			
				<rect x="172.343" y="169.406" transform="matrix(0.2084 0.978 -0.978 0.2084 307.7346 -37.5327)" fill="#FFFFFF" width="9.42" height="3.863"/>
		</g>
		<g>
			<path fill="#C7A65A" d="M33.467,180.594c0,0,2.292,0.07,6.304,0.191c4.013,0.115,9.748,0.246,16.63,0.365
				c3.441,0.068,7.17,0.089,11.113,0.139c3.943,0.017,8.102,0.034,12.404,0.053c2.152-0.004,4.338-0.009,6.551-0.015
				c2.215,0,4.455-0.012,6.713-0.042c4.516-0.048,9.104-0.082,13.692-0.194c2.294-0.046,4.587-0.093,6.871-0.139
				c2.284-0.073,4.559-0.146,6.815-0.217c2.256-0.08,4.496-0.129,6.709-0.23c2.207-0.104,4.394-0.205,6.541-0.304
				c4.296-0.175,8.439-0.496,12.372-0.753c3.935-0.227,7.638-0.623,11.063-0.917c3.427-0.268,6.546-0.689,9.316-1.02
				c1.386-0.171,2.682-0.331,3.879-0.478c1.195-0.16,2.283-0.373,3.271-0.531c3.941-0.663,6.193-1.041,6.193-1.041l0.322,1.686
				c0,0-2.278,0.354-6.267,0.976c-0.998,0.146-2.099,0.347-3.304,0.493c-1.207,0.139-2.511,0.288-3.904,0.447
				c-2.787,0.321-5.927,0.731-9.368,0.985c-3.438,0.282-7.157,0.664-11.102,0.873c-3.942,0.243-8.099,0.539-12.403,0.707
				c-2.151,0.104-4.34,0.21-6.553,0.317c-2.216,0.107-4.458,0.16-6.719,0.243c-2.26,0.077-4.537,0.153-6.824,0.23
				c-2.288,0.05-4.584,0.102-6.881,0.152c-4.593,0.121-9.187,0.164-13.708,0.22c-2.261,0.036-4.503,0.052-6.72,0.056
				c-2.215,0.01-4.405,0.019-6.558,0.028c-4.306-0.011-8.469-0.021-12.416-0.03c-3.947-0.039-7.68-0.074-11.124-0.106
				c-6.889-0.08-12.63-0.181-16.649-0.273c-4.02-0.099-6.316-0.156-6.316-0.156L33.467,180.594z"/>
		</g>
		<g>
			<rect x="108.363" y="10.099" fill="#A38241" width="3.861" height="1.045"/>
		</g>
		
			<line fill="none" stroke="#F9F9F9" stroke-width="0.5" stroke-miterlimit="10" x1="110.294" y1="10.622" x2="42.497" y2="177.188"/>
		
			<line fill="none" stroke="#F9F9F9" stroke-width="0.5" stroke-miterlimit="10" x1="110.385" y1="12.325" x2="128.612" y2="179.052"/>
		
			<line fill="none" stroke="#F9F9F9" stroke-width="0.5" stroke-miterlimit="10" x1="110.385" y1="12.325" x2="124.041" y2="178.786"/>
		
			<line fill="none" stroke="#4F4F4F" stroke-width="0.5" stroke-miterlimit="10" x1="110.385" y1="12.325" x2="132.418" y2="179.209"/>
		
			<line fill="none" stroke="#4F4F4F" stroke-width="0.5" stroke-miterlimit="10" x1="110.693" y1="10.823" x2="70.794" y2="179.209"/>
		
			<line fill="none" stroke="#F9F9F9" stroke-width="0.5" stroke-miterlimit="10" x1="132.418" y1="150.059" x2="117.213" y2="178.501"/>
		<polygon fill="#E2C07D" points="109.248,163.366 69.3,158.535 68.779,160.098 109.248,164.948 		"/>
		<polygon fill="#34485E" points="160.06,179.818 184.006,176.368 184.692,177.532 160.06,182.409 		"/>
	</g>
</g>
</svg>
