<?xml version="1.0" encoding="utf-8"?>
<!-- Generator: Adobe Illustrator 18.0.0, SVG Export Plug-In . SVG Version: 6.00 Build 0)  -->
<!DOCTYPE svg PUBLIC "-//W3C//DTD SVG 1.1//EN" "http://www.w3.org/Graphics/SVG/1.1/DTD/svg11.dtd">
<svg version="1.1" id="copter" xmlns="http://www.w3.org/2000/svg" xmlns:xlink="http://www.w3.org/1999/xlink" x="0px" y="0px"
	 viewBox="0 0 640 480" enable-background="new 0 0 640 480" xml:space="preserve">
<g>
	<path fill-rule="evenodd" clip-rule="evenodd" fill="#4CBAF2" d="M314.1,146.9L314.1,146.9c2.1,0,3.8,1.7,3.8,3.8v79.4
		c0,2.1-1.7,3.8-3.8,3.8h0c-2.1,0-3.8-1.7-3.8-3.8v-79.4C310.3,148.6,312,146.9,314.1,146.9z"/>
	<path fill-rule="evenodd" clip-rule="evenodd" fill="#369CD0" d="M314.1,208c17.3,0,31.5-10.1,31.5-22.5
		c0-12.4-14.1-22.5-31.5-22.5c-17.3,0-31.5,10.1-31.5,22.5C282.6,197.9,296.7,208,314.1,208z"/>
	<path fill-rule="evenodd" clip-rule="evenodd" fill="#4CBAF2" d="M279.9,176.7h68.3c4.8,0,8.7,3.9,8.7,8.7v12.2
		c0,4.8-3.9,8.7-8.7,8.7h-68.3c-4.8,0-8.7-3.9-8.7-8.7v-12.2C271.2,180.6,275.1,176.7,279.9,176.7z"/>
	<rect x="241.5" y="275.8" fill-rule="evenodd" clip-rule="evenodd" fill="#454C54" width="5.5" height="24.6"/>
	<rect x="332.5" y="275.8" fill-rule="evenodd" clip-rule="evenodd" fill="#454C54" width="5.5" height="24.6"/>
	<path fill-rule="evenodd" clip-rule="evenodd" fill="#E84E2F" d="M532.9,185.4H256.4c-9.5,0-20,5.6-25.2,13.5l-32.4,48.8
		c-11,16.5,5.6,32.7,18,32.7h121.9c7.3,0,14.6-2.8,20.7-6.7l57.7-36.3l116.5-35.8C538.7,200.1,546.8,185.4,532.9,185.4z"/>
	<path fill-rule="evenodd" clip-rule="evenodd" fill="#B32E23" d="M195.3,261.5c1.6,10.7,12.5,18.9,21.4,18.9h121.9
		c7.3,0,14.6-2.8,20.7-6.7l19.5-12.3H195.3z"/>
	<g id="chirag">
		<polygon fill-rule="evenodd" clip-rule="evenodd" fill="#454C54" points="314.1,148.4 493,151.1 493,144.2 314.1,146.9 		"/>
		<polygon fill-rule="evenodd" clip-rule="evenodd" fill="#454C54" points="314.1,148.4 135.2,151.1 135.2,144.2 314.1,146.9 		"/>
	</g>
	<path fill-rule="evenodd" clip-rule="evenodd" fill="#E84E2F" d="M539,216.7c3.6-20.4,7.2-40.8,10.9-61.2
		C531.6,155.5,521,216.6,539,216.7z"/>
	<g id="bakchirag">
		<polygon fill-rule="evenodd" clip-rule="evenodd" fill="#454C54" points="536,193.6 556.8,211.2 560.5,205.9 536.8,192.5 		"/>
		<polygon fill-rule="evenodd" clip-rule="evenodd" fill="#454C54" points="536,193.6 512.3,180.2 516,174.9 536.8,192.5 		"/>
		<polygon fill-rule="evenodd" clip-rule="evenodd" fill="#454C54" points="535.8,192.6 518.2,213.4 523.5,217.1 536.9,193.4 		"/>
		<polygon fill-rule="evenodd" clip-rule="evenodd" fill="#454C54" points="535.8,192.6 549.2,168.9 554.5,172.6 536.9,193.4 		"/>
	</g>
	<path fill-rule="evenodd" clip-rule="evenodd" fill="#7D8590" d="M264.7,185.4h-8.3c-9.5,0-20,5.6-25.2,13.5l-32.4,48.8
		c-11,16.5,5.6,32.7,18,32.7h9.6L264.7,185.4z"/>
	<path fill-rule="evenodd" clip-rule="evenodd" fill="#454C54" d="M195.6,263L195.6,263c0.1,0.5,0.2,1,0.4,1.5l0,0
		c0.6,1.7,1.3,3.4,2.3,4.9l0,0c0.3,0.4,0.5,0.8,0.8,1.2l0,0c0.1,0.1,0.2,0.3,0.3,0.4l0,0c0.2,0.2,0.4,0.5,0.6,0.7l0,0
		c0.1,0.1,0.2,0.2,0.3,0.3l0.1,0.1c0.3,0.3,0.6,0.6,0.9,1l0.1,0.1l0.3,0.3l0.1,0.1c0.2,0.2,0.3,0.3,0.5,0.5l0.2,0.1l0.3,0.2l0.2,0.1
		c0.1,0.1,0.2,0.2,0.3,0.2l0,0c0.1,0.1,0.3,0.2,0.4,0.3l0,0l0.3,0.2l0.2,0.1l0.3,0.2l0.3,0.2c0.1,0.1,0.2,0.2,0.4,0.3l0.3,0.2
		l0.2,0.1l0.3,0.2l0.2,0.2c0.1,0.1,0.3,0.2,0.4,0.3l0.2,0.1c0.1,0.1,0.2,0.1,0.3,0.2l0.2,0.1c0.1,0.1,0.3,0.1,0.4,0.2l0.2,0.1
		c0.1,0.1,0.3,0.1,0.4,0.2l0.2,0.1l0.3,0.2l0.2,0.1c0.2,0.1,0.3,0.2,0.5,0.2l0.1,0.1c0.1,0.1,0.3,0.1,0.4,0.2l0.2,0.1
		c0.2,0.1,0.3,0.1,0.5,0.2l0.1,0h0l0,0c0.2,0.1,0.3,0.1,0.5,0.2l0.2,0.1c0.1,0,0.3,0.1,0.4,0.1l0.2,0c0.2,0.1,0.4,0.1,0.5,0.1l0.1,0
		c0.1,0,0.3,0.1,0.4,0.1l0.1,0c0.2,0,0.4,0.1,0.5,0.1l0,0c0.2,0,0.4,0.1,0.5,0.1l0.2,0c0.1,0,0.3,0,0.4,0.1l0.1,0
		c0.2,0,0.4,0,0.5,0.1l0.1,0c0.1,0,0.3,0,0.4,0l0.2,0c0.2,0,0.3,0,0.5,0h9.6l7.7-18.9h-38.6C195.4,262,195.5,262.5,195.6,263z"/>
	<g>
		<path fill-rule="evenodd" clip-rule="evenodd" fill="#98DCFF" d="M320.4,196.9h-44l-0.2,0l-0.2,0c-4.1,0-8.7,3.9-10.2,7.6
			l-10.7,27.9c-1.6,4.2,0.5,7.6,4.7,7.6h16.5h27.5h16.5c4.2,0,7.6-3.4,7.6-7.6v-27.9c0-4.1-3.2-7.4-7.2-7.6l-0.2,0L320.4,196.9z"/>
		<path fill-rule="evenodd" clip-rule="evenodd" fill="#98DCFF" d="M242.6,240.1l17.5-43.2H246l-0.2,0l0,0l-0.2,0h0
			c-4.2,0.2-9.5,3.6-12.1,7.6l-17.9,27.9c-2.7,4.2-1.5,7.6,2.7,7.6h16.5H242.6z"/>
	</g>
	<path fill-rule="evenodd" clip-rule="evenodd" fill="#454C54" d="M347.8,303.2L347.8,303.2c0,1.5-1.2,2.7-2.7,2.7h-117
		c-1.5,0-2.7-1.2-2.7-2.7l0,0c0-1.5,1.2-2.7,2.7-2.7h117C346.6,300.5,347.8,301.7,347.8,303.2z"/>
	<path fill-rule="evenodd" clip-rule="evenodd" fill="#454C54" d="M218.5,295L218.5,295c1-1.1,2.7-1.3,3.9-0.3l7.5,6.4
		c1.1,1,1.3,2.7,0.3,3.9l0,0c-1,1.1-2.7,1.3-3.9,0.3l-7.5-6.4C217.6,297.9,217.5,296.2,218.5,295z"/>
	<g>
		<g>
			<polygon fill-rule="evenodd" clip-rule="evenodd" fill="#BEE9FF" points="318.6,196.9 285,240.1 276.4,240.1 272.9,240.1 
				306.5,196.9 			"/>
			<polygon fill-rule="evenodd" clip-rule="evenodd" fill="#BEE9FF" points="302.4,196.9 268.8,240.1 261.3,240.1 295,196.9 			"/>
			<path fill-rule="evenodd" clip-rule="evenodd" fill="#BEE9FF" d="M327.1,200.9l-30.6,39.2h-7.4l33.4-42.9
				C324.4,197.8,326.1,199.1,327.1,200.9z"/>
		</g>
		<polygon fill-rule="evenodd" clip-rule="evenodd" fill="#BEE9FF" points="259.3,196.9 225.7,240.1 218.2,240.1 218.2,240.1 
			251.8,196.9 		"/>
	</g>
</g>
</svg>
