<svg xmlns="http://www.w3.org/2000/svg" width="862" height="208" viewBox="0 0 862 208"><g transform="translate(-93.22 -406.407)"><path clip-rule="evenodd" fill="#ffe3e3" fill-rule="evenodd" d="M946.554 452.296L904.87 508.94l41.684 56.646h-411.77v-113.29"/><path stroke-miterlimit="22.926" clip-rule="evenodd" fill="none" stroke="#fff" stroke-width="1.92" d="M534.785 452.296l-75.002 56.645 75.002 56.646"/><path d="M389.623 527.307c10.31 3.964 21 1.086 37.152-13.188 16.15-14.272 34.93-25.164 43.193-16.525 8.263 8.638 2.63 35.68-3.756 45.445-6.385 9.766-24.63 13.218-67.942 13.2-43.312-.02-52.246-29.723-8.647-28.933z" clip-rule="evenodd" fill="#f7daac" fill-rule="evenodd"/><path d="M194.997 581.588c7.233 0 13.132-5.9 13.132-13.132 0-7.23-5.9-13.132-13.133-13.132-7.233 0-13.132 5.9-13.132 13.132 0 7.232 5.9 13.132 13.132 13.132z" clip-rule="evenodd" fill="#4d4d4d" fill-rule="evenodd"/><path d="M194.997 575.526c3.895 0 7.07-3.175 7.07-7.07 0-3.895-3.175-7.07-7.07-7.07-3.895 0-7.07 3.175-7.07 7.07 0 3.895 3.176 7.07 7.07 7.07z" clip-rule="evenodd" fill="#f7daac" fill-rule="evenodd"/><path clip-rule="evenodd" fill="#a66803" fill-rule="evenodd" d="M202.75 562.317l-6.27-3.652 16.412-28.173 6.27 3.653z"/><path clip-rule="evenodd" fill="#a66803" fill-rule="evenodd" d="M210.455 566.953l-3.47 3.375-42.81-45.11 3.468-3.376"/><path d="M240.387 496.05c1.075 0 1.946.872 1.946 1.947v.062c.73 1.57 3.213 6.026 7.757 5.8 5.308-.266 3.97-4.11 5.096-6.115-1.11-1.224-1.79-2.85-1.79-4.63 0-3.805 3.085-6.89 6.89-6.89 3.803 0 6.888 3.084 6.888 6.89 0 2.41-1.24 4.53-3.115 5.762 3.457 4.23 6.037 12.052 5.593 22.893-.55 13.5-36.646.826-36.646.826s9.37-8.54 7.99-14.88c-1.376-6.336-2.48-9.09-2.48-9.09l.024-.01c-.064-.194-.1-.402-.1-.618 0-1.076.873-1.947 1.947-1.947z" clip-rule="evenodd" fill="#cf8713" fill-rule="evenodd"/><path d="M131.033 499.538c-1.28 11.92 18.27 34.12 102.368 44.633 84.096 10.514 201.482 16.018 206.487 8.51 4.384-6.575-84.452-40.904-147.552-55.124-.76 7.746-2.865 13.357-8.104 12.11-8.762-2.086-40.06-7.51-52.994-10.015-10.947-2.118-11.136-6.33-11.44-11.872-47.38-3.35-87.432-.648-88.763 11.76z" clip-rule="evenodd" fill="#f9a822" fill-rule="evenodd"/><path d="M175.657 532.668c14.572 4.457 33.462 8.467 57.744 11.503 5.472.685 11.086 1.346 16.798 1.987 2.972-22.474 5.57-41.987 5.57-41.987-9.41-1.717-18.785-3.406-24.532-4.52-10.947-2.118-11.136-6.33-11.44-11.872-7.42-.525-14.66-.9-21.596-1.114l-22.543 46.004z" clip-rule="evenodd" fill="#cf8713" fill-rule="evenodd"/><ellipse transform="rotate(-79.922 142.56 501.567)" cx="142.572" cy="501.588" rx="7.107" ry="22.943" clip-rule="evenodd" fill="#f9a822" fill-rule="evenodd"/><path d="M130.978 500.762l.08.018.08.016.018.004.062.013.077.017.038.008.04.01.073.014.058.013.015.003.07.016.072.014h.004l.064.015.07.014.024.005.042.01.065.014.043.01.023.004.063.014.057.012h.004l.062.014.06.014.012.003.045.01.055.01.03.008.026.006.055.013.043.01.01.002.052.012.05.01.006.002.043.01.048.01.018.004.028.006.045.01.03.007.013.002.043.01.04.008.002.002.04.01.04.006.01.003.028.005.037.008.02.005.015.003.034.01.028.005.005.002.03.005.03.008h.004l.024.006.028.008.01.002.017.003.024.005.017.003h.008l.022.007.02.005.022.004.018.004.005.002.013.003.016.003.008.003h.007l.012.002.01.002h.002l.01.004.01.002h.002l.007.002h.01l.002.002h.008v.003h.002l.002.003.006.007.008.01.004.002.014.015.02.02.014.016.01.01.027.03.032.034.014.014.023.024.04.042.046.046.01.01.04.04.057.055.058.06h.003l.063.062.127.123.016.015.077.074.083.077.088.083.093.087.098.09.103.093.108.098.112.1.1.09.017.016.122.108.26.226.135.118.013.01.13.112.147.125.152.127.16.13.162.136.167.14.174.14.18.142.036.03.32.255.016.012.196.152.02.016.35.27.036.027.21.16.035.025.182.14.223.165.228.17.233.17.24.175.245.177.244.173.4.283.316.22.416.287.37.25.513.346.227.152.635.414.25.163c12.4 7.966 38.6 20.367 86.46 25.484 73.166 7.822 167.502 16.566 198.333 11.044.837-.15 1.653-.298 2.456-.444 7.055 3.727 10.772 6.6 9.79 8.076-5.006 7.508-122.392 2.004-206.487-8.51-69.802-8.725-95.134-25.502-100.998-37.77-7.003-2.246-11.865-5.27-12.403-7.94 5.065 1.03 8.736 1.81 10.976 2.292z" clip-rule="evenodd" fill="#cf8713" fill-rule="evenodd"/><path d="M130.978 500.762l.08.018.08.016.018.004.062.013.077.017.038.008.04.01.073.014.058.013.015.003.07.016.072.014h.004l.064.015.07.014.024.005.042.01.065.014.043.01.023.004.063.014.057.012h.004l.062.014.06.014.012.003.045.01.055.01.03.008.026.006.055.013.043.01.01.002.052.012.05.01.006.002.043.01.048.01.018.004.028.006.045.01.03.007.013.002.043.01.04.008.002.002.04.01.04.006.01.003.028.005.037.008.02.005.015.003.034.01.028.005.005.002.03.005.03.008h.004l.024.006.028.008.01.002.017.003.024.005.017.003h.008l.022.007.02.005.022.004.018.004.005.002.013.003.016.003.008.003h.007l.012.002.01.002h.002l.01.004.01.002h.002l.007.002h.01l.002.002h.008v.003h.002l.002.003.006.007.008.01.004.002.014.015.02.02.014.016.01.01.027.03.032.034.014.014.023.024.04.042.046.046.01.01.04.04.057.055.058.06h.003l.063.062.127.123.016.015.077.074.083.077.088.083.093.087.098.09.103.093.108.098.112.1.1.09.017.016.122.108.26.226.135.118.013.01.13.112.147.125.152.127.16.13.162.136.167.14.174.14.18.142.036.03.32.255.016.012.196.152.02.016.35.27.036.027.21.16.035.025.182.14.223.165.228.17.233.17.24.175.245.177.244.173.4.283.316.22.416.287.37.25.513.346.227.152.635.414.25.163c.218.14.44.28.668.422-.723-.106-1.453-.225-2.19-.355-3.21-.57-6.226-1.32-8.924-2.187l-.327-.105-.325-.107c-.215-.072-.427-.144-.638-.217l-.312-.11-.307-.11h-.01l-.3-.112-.304-.113c-1.305-.49-2.51-1.01-3.6-1.543l-.006-.004c-.24-.118-.476-.236-.705-.356l-.057-.03-.207-.11-.232-.126-.18-.1-.087-.048-.183-.105-.22-.127-.173-.104-.09-.055-.15-.092-.01-.004-.203-.128c-.134-.085-.266-.172-.395-.258l-.19-.13-.173-.12-.026-.018c-.24-.17-.465-.34-.678-.51l-.16-.13-.158-.14-.002-.004-.15-.13-.143-.13-.126-.12-.024-.02c-.13-.125-.253-.25-.368-.375l-.013-.014c-.113-.123-.218-.245-.317-.368l-.022-.027c-.095-.12-.183-.24-.263-.36l-.02-.03-.074-.115-.078-.128-.063-.114-.015-.027-.06-.114v-.002l-.06-.128-.043-.106-.015-.04-.04-.106-.01-.024c-.024-.073-.045-.147-.064-.22l-.004-.02-.03-.116c5.067 1.042 8.738 1.822 10.978 2.304z" clip-rule="evenodd" fill="#cf8713" fill-rule="evenodd"/><path d="M136.78 451.043c-.637 13.738-2.552 30.522-5.747 48.495-3.195 17.97-7.18 34.388-11.318 47.504.637-13.738 2.552-30.522 5.747-48.495 3.194-17.972 7.18-34.388 11.318-47.504z" clip-rule="evenodd" fill="#fff1db" fill-rule="evenodd"/><path d="M124.12 502.8c-2.86-1.74-4.428-3.58-4.136-5.227.293-1.646 2.4-2.833 5.683-3.482.17 1.454.137 2.956-.132 4.47-.27 1.514-.754 2.936-1.416 4.24z" clip-rule="evenodd" fill="#ffcd7d" fill-rule="evenodd"/><path d="M206.458 592.57c8.022 0 14.565-6.543 14.565-14.562 0-8.023-6.543-14.566-14.565-14.566-8.022 0-14.565 6.543-14.565 14.566 0 8.02 6.543 14.563 14.565 14.563z" clip-rule="evenodd" fill="#4d4d4d" fill-rule="evenodd"/><path d="M206.458 585.85c4.32 0 7.842-3.522 7.842-7.842s-3.523-7.843-7.842-7.843c-4.32 0-7.842 3.52-7.842 7.843 0 4.32 3.523 7.842 7.842 7.842z" clip-rule="evenodd" fill="#f7daac" fill-rule="evenodd"/><path d="M191.43 460.124c-2.927-.154-2.922 1.704 2.19 2.677 5.112.974 54.28 12.17 60.61 12.658 6.327.486 25.07 1.704 37.483-1.704 12.414-3.407 71.805-22.88 76.674-24.828 4.867-1.947 8.52-2.434 3.164-4.868-5.354-2.433-71.56-19.715-81.784-21.42-10.224-1.703-18.743-3.163-24.828 2.192-6.085 5.355-47.22 30.182-50.386 33.103-3.163 2.92-16.76 2.525-23.123 2.19z" clip-rule="evenodd" fill="#fff" fill-rule="evenodd"/><path clip-rule="evenodd" fill="#a66803" fill-rule="evenodd" d="M209.928 579.088l-6.938-2.123 11.193-36.58 6.94 2.123z"/><path clip-rule="evenodd" fill="#fff" fill-rule="evenodd" d="M301.337 548.763l-6.083-.67 8.05-92.59 6.08.67M251.395 543.97l-6.083-.67 10.974-99.62 6.083.67z"/><path fill="#ffcd7d" d="M295.254 548.094l-34.817-103.106 1.92-.624 34.818 103.105"/><path fill="#ffcd7d" d="M249.683 542.892l53.62-87.388 1.697 1.09-53.62 87.39"/><path stroke-miterlimit="22.926" d="M228.493 468.543l4.817.472-3.36 30.366c-1.913-.433-3.456-.94-4.7-1.52l3.243-29.317z" clip-rule="evenodd" fill="#fff" fill-rule="evenodd" stroke="#fff" stroke-width=".216"/><path d="M199.712 463.088l4.818.47-2.57 23.237c-1.633-.063-3.25-.118-4.853-.163l2.605-23.544z" clip-rule="evenodd" fill="#fff" fill-rule="evenodd"/><path fill="#ffcd7d" d="M209.768 487.155l-6.39-23.22 1.152-.375 6.51 23.664M217.785 487.64l10.648-18.704 1.018.655-10.327 18.14"/><path d="M206.133 540.162c12.302-.88 45.984-.588 61.507.292 15.523.878 36.32 6.443 53.307 11.717 16.988 5.272 35.147 11.715 36.026 13.766.88 2.05-8.494 1.172-20.503.293-12.008-.88-59.165-9.373-67.95-10.25-8.788-.88-67.66-14.94-62.387-15.818z" clip-rule="evenodd" fill="#fff" fill-rule="evenodd"/><path d="M474.062 514.267c-.405 10.65-3.99 22.87-7.85 28.773-6.386 9.766-24.632 13.218-67.944 13.2-17.436-.01-29.294-4.828-34.403-10.53 28.005 1.468 51.188 1.593 63.78-.662 30.83-5.523 37.272-8.283 46.016-29.91.13-.32.263-.606.402-.87z" clip-rule="evenodd" fill="#cf8713" fill-rule="evenodd"/><ellipse transform="rotate(-81.877 440.944 542.48)" cx="440.958" cy="542.498" rx="4.8" ry="49.857" clip-rule="evenodd" fill="#f9a822" fill-rule="evenodd"/><path d="M441.636 537.748c27.26 3.892 49.054 9.174 48.678 11.798L391.6 535.45c.375-2.623 22.777-1.596 50.036 2.298z" clip-rule="evenodd" fill="#ffcb78" fill-rule="evenodd"/></g><text x="461.068" y="127.012"><tspan x="461.068" y="127.012" font-size="73.481" font-family="Code-Bold" fill="#f47047">Oct 5 - 8</tspan></text></svg>