<?xml version="1.0" encoding="utf-8"?>
<!-- Generator: Adobe Illustrator 18.0.0, SVG Export Plug-In . SVG Version: 6.00 Build 0)  -->
<!DOCTYPE svg PUBLIC "-//W3C//DTD SVG 1.1//EN" "http://www.w3.org/Graphics/SVG/1.1/DTD/svg11.dtd">
<svg version="1.1" id="copter" xmlns="http://www.w3.org/2000/svg" xmlns:xlink="http://www.w3.org/1999/xlink" x="0px" y="0px"
	 viewBox="0 0 640 480" enable-background="new 0 0 640 480" xml:space="preserve">
<g>
	<g>
		<path fill-rule="evenodd" clip-rule="evenodd" fill="#E84E2F" d="M445.4,260.4c6.1,0,11-4.2,11-9.3c0-5.1-5-9.3-11-9.3
			c-6.1,0-11,4.2-11,9.3C434.3,256.2,439.3,260.4,445.4,260.4z"/>
		<path fill-rule="evenodd" clip-rule="evenodd" fill="#FFC20D" d="M196.7,285.2h241.6c5.9,0,10.7-4.8,10.7-10.7v-91.3
			c0-5.9-4.8-10.7-10.7-10.7H196.7c-5.9,0-10.7,4.8-10.7,10.7v91.3C186,280.4,190.8,285.2,196.7,285.2z"/>
		<path fill-rule="evenodd" clip-rule="evenodd" fill="#DAA509" d="M197.4,285.2h240.3c6.2,0,11.4-5.1,11.4-11.4v-6.2H186v6.2
			C186,280.1,191.1,285.2,197.4,285.2z"/>
		<path fill-rule="evenodd" clip-rule="evenodd" fill="#DAA509" d="M210.4,285.2h74.9c0.8,0,1.6-0.1,2.4-0.3
			c-0.1-21.2-17.4-38.4-38.6-38.4C227.7,246.6,210.4,263.9,210.4,285.2z"/>
		<path fill-rule="evenodd" clip-rule="evenodd" fill="#4CBAF2" d="M186,232.1h33c2.7,0,4.8-1.8,4.8-4.1v-34.8
			c0-2.2-2.2-4.1-4.8-4.1h-33V232.1z"/>
		<path fill-rule="evenodd" clip-rule="evenodd" fill="#4CBAF2" d="M236.7,232.1h75.9c2.7,0,4.8-1.8,4.8-4.1v-34.8
			c0-2.2-2.2-4.1-4.8-4.1h-75.9c-2.7,0-4.8,1.8-4.8,4.1v34.8C231.9,230.3,234.1,232.1,236.7,232.1z"/>
		<path fill-rule="evenodd" clip-rule="evenodd" fill="#4CBAF2" d="M330.4,232.1h75.9c2.7,0,4.8-1.8,4.8-4.1v-34.8
			c0-2.2-2.2-4.1-4.8-4.1h-75.9c-2.7,0-4.8,1.8-4.8,4.1v34.8C325.6,230.3,327.8,232.1,330.4,232.1z"/>
		<path fill-rule="evenodd" clip-rule="evenodd" fill="#4CBAF2" d="M424.1,232.1H449v-42.9h-24.8c-2.7,0-4.8,1.8-4.8,4.1v34.8
			C419.3,230.3,421.5,232.1,424.1,232.1z"/>
		<path fill-rule="evenodd" clip-rule="evenodd" fill="#DAA509" d="M357.7,285.2h74.9c0.8,0,1.6-0.1,2.4-0.3
			c-0.1-21.2-17.4-38.4-38.6-38.4C375,246.6,357.7,263.9,357.7,285.2z"/>
		<circle fill-rule="evenodd" clip-rule="evenodd" fill="#454C54" cx="396.4" cy="285.2" r="27.3"/>
		<circle fill-rule="evenodd" clip-rule="evenodd" fill="#7D8590" cx="396.4" cy="285.2" r="11.4"/>
		<circle fill-rule="evenodd" clip-rule="evenodd" fill="#454C54" cx="249" cy="285.2" r="27.3"/>
		<circle fill-rule="evenodd" clip-rule="evenodd" fill="#7D8590" cx="249" cy="285.2" r="11.4"/>
		<path fill-rule="evenodd" clip-rule="evenodd" fill="#FFFFFF" d="M436.7,261.8H456c3.2,0,5.7,2.6,5.7,5.7v0c0,3.2-2.6,5.7-5.7,5.7
			h-19.3c-3.2,0-5.7-2.6-5.7-5.7v0C431,264.4,433.6,261.8,436.7,261.8z"/>
		<path fill-rule="evenodd" clip-rule="evenodd" fill="#FFE59B" d="M186,236.8h4.5c1.8,0,3.3,1.2,3.3,2.7v14.4
			c0,1.5-1.5,2.7-3.3,2.7H186V236.8z"/>
		<g>
			<polygon fill-rule="evenodd" clip-rule="evenodd" fill="#98DCFF" points="206.8,189.3 186,214.4 186,203.5 197.8,189.3 			"/>
			<polygon fill-rule="evenodd" clip-rule="evenodd" fill="#98DCFF" points="194.7,189.3 186,199.8 186,193 189.1,189.3 			"/>
			<polygon fill-rule="evenodd" clip-rule="evenodd" fill="#98DCFF" points="215.4,189.3 186,224.8 186,218.1 209.9,189.3 			"/>
		</g>
		<g>
			<polygon fill-rule="evenodd" clip-rule="evenodd" fill="#98DCFF" points="297,189.3 261.5,232.1 252.4,232.1 287.9,189.3 			"/>
			<polygon fill-rule="evenodd" clip-rule="evenodd" fill="#98DCFF" points="284.9,189.3 249.4,232.1 243.8,232.1 279.3,189.3 			
				"/>
			<polygon fill-rule="evenodd" clip-rule="evenodd" fill="#98DCFF" points="305.6,189.3 270.1,232.1 264.5,232.1 300,189.3 			"/>
		</g>
		<g>
			<polygon fill-rule="evenodd" clip-rule="evenodd" fill="#98DCFF" points="390.6,189.3 355.1,232.1 346.1,232.1 381.6,189.3 			
				"/>
			<polygon fill-rule="evenodd" clip-rule="evenodd" fill="#98DCFF" points="378.5,189.3 343,232.1 337.4,232.1 372.9,189.3 			"/>
			<polygon fill-rule="evenodd" clip-rule="evenodd" fill="#98DCFF" points="399.2,189.3 363.7,232.1 358.2,232.1 393.7,189.3 			
				"/>
		</g>
		<g>
			<polygon fill-rule="evenodd" clip-rule="evenodd" fill="#98DCFF" points="449,228.7 446.1,232.1 437.1,232.1 449,217.8 			"/>
			<polygon fill-rule="evenodd" clip-rule="evenodd" fill="#98DCFF" points="449,214.1 434,232.1 428.5,232.1 449,207.4 			"/>
		</g>
		<path fill-rule="evenodd" clip-rule="evenodd" fill="#FFE59B" d="M196,235.5c-2.5,0-4.5-1.9-4.5-4.2v-12.7c0-2.3,2-4.2,4.5-4.2
			V235.5z"/>
		<rect x="196" y="214.4" fill-rule="evenodd" clip-rule="evenodd" fill="#FFFFFF" width="2.2" height="21.2"/>
		<path fill-rule="evenodd" clip-rule="evenodd" fill="#FFFFFF" d="M183,259.3h20.3c3.3,0,6,2.7,6,6l0,0c0,3.3-2.7,6-6,6H183
			c-3.3,0-6-2.7-6-6l0,0C177,262,179.7,259.3,183,259.3z"/>
	</g>
</g>
</svg>
